<?xml version="1.0" standalone="no"?>
<!DOCTYPE svg PUBLIC "-//W3C//DTD SVG 20010904//EN"
 "http://www.w3.org/TR/2001/REC-SVG-20010904/DTD/svg10.dtd">
<svg version="1.0" xmlns="http://www.w3.org/2000/svg"
 width="1280.000000pt" height="1280.000000pt" viewBox="0 0 1280.000000 1280.000000"
 preserveAspectRatio="xMidYMid meet">
<metadata>
Created by potrace 1.16, written by Peter Selinger 2001-2019
</metadata>
<g transform="translate(0.000000,1280.000000) scale(0.100000,-0.100000)"
fill="#5956e9" stroke="none">
<path d="M6005 12700 c-139 -8 -302 -23 -425 -41 -86 -12 -253 -37 -290 -44
-102 -19 -298 -60 -360 -75 -19 -5 -62 -15 -95 -23 -476 -116 -1099 -368
-1540 -622 -55 -32 -120 -69 -144 -83 -75 -42 -351 -225 -476 -317 -217 -159
-372 -288 -605 -506 -1060 -992 -1751 -2367 -1924 -3829 -31 -258 -37 -342
-42 -600 -25 -1101 226 -2155 744 -3124 231 -432 553 -892 867 -1236 103 -113
416 -423 516 -511 206 -181 389 -323 609 -473 142 -97 393 -256 404 -256 2 0
41 -22 87 -48 167 -96 435 -227 629 -307 63 -25 124 -51 135 -56 50 -23 424
-151 520 -179 531 -151 940 -217 1557 -251 378 -21 891 16 1333 96 221 40 379
76 590 135 154 43 465 145 520 170 11 5 56 23 100 40 44 17 89 35 100 40 42
19 132 58 185 81 112 47 453 225 578 301 34 21 65 38 68 38 2 0 17 8 32 19 15
10 88 58 162 107 121 78 427 297 440 313 3 4 25 22 50 41 25 19 50 39 56 45 6
5 36 30 65 55 339 285 715 682 965 1020 204 277 339 485 486 750 61 108 228
443 228 454 0 3 14 34 30 69 17 36 30 68 30 71 0 4 9 25 20 49 64 138 170 446
245 712 37 131 97 387 120 515 35 190 50 289 75 495 15 129 40 546 40 680 0
133 -25 554 -40 670 -29 229 -59 422 -90 585 -22 113 -86 371 -130 525 -16 56
-119 366 -130 390 -5 11 -17 45 -28 75 -63 175 -263 609 -359 780 -11 19 -35
62 -54 95 -104 187 -270 440 -423 645 -648 870 -1523 1567 -2511 2000 -11 5
-46 20 -78 34 -32 14 -60 26 -63 26 -3 0 -20 6 -37 14 -120 51 -406 152 -542
191 -33 9 -71 21 -85 26 -14 5 -43 13 -65 18 -22 5 -103 25 -180 44 -208 51
-326 75 -505 102 -58 8 -134 20 -170 25 -282 43 -808 60 -1195 40z m890 -3981
c22 -5 65 -14 95 -18 119 -18 403 -98 500 -142 135 -61 222 -105 277 -140 34
-21 66 -39 69 -39 4 0 30 -17 58 -38 28 -21 64 -46 79 -56 31 -19 33 -21 146
-117 154 -132 308 -313 429 -506 53 -84 162 -294 162 -311 0 -5 7 -23 15 -38
8 -16 15 -36 15 -44 0 -9 4 -20 9 -25 17 -19 79 -263 102 -405 21 -127 24
-595 4 -730 -31 -223 -68 -355 -141 -506 -32 -66 -135 -230 -153 -244 -11 -9
-68 -84 -78 -105 -7 -13 -7 -44 -1 -90 5 -38 13 -169 18 -290 5 -121 14 -293
21 -382 11 -145 10 -166 -5 -213 -33 -102 -99 -159 -210 -180 -54 -11 -74 -11
-104 -1 -34 11 -119 53 -620 300 -158 78 -197 91 -218 72 -5 -5 -70 -28 -144
-51 -193 -60 -216 -67 -300 -85 -41 -9 -93 -22 -115 -28 -57 -17 -859 -17
-935 0 -30 7 -91 16 -135 22 -72 8 -231 44 -310 69 -230 74 -488 207 -674 348
-222 168 -404 360 -549 577 -18 26 -32 50 -32 53 0 3 -13 24 -28 47 -113 168
-249 536 -282 762 -25 172 -29 226 -29 385 -1 129 5 194 23 300 23 133 68 316
86 355 5 11 25 61 44 111 32 86 114 250 141 284 6 8 35 52 63 97 192 308 542
614 887 777 44 21 94 45 110 53 74 37 247 92 390 123 22 5 53 13 68 19 16 6
45 11 65 11 20 1 60 7 87 15 62 17 1034 21 1100 4z"/>
<path d="M6020 8289 c-91 -3 -187 -10 -215 -17 -123 -28 -191 -42 -205 -42
-18 0 -229 -79 -291 -109 -23 -12 -46 -21 -51 -21 -15 0 -194 -114 -283 -179
-49 -38 -133 -110 -186 -162 -249 -243 -387 -492 -489 -877 -31 -119 -31 -510
0 -662 94 -454 335 -838 696 -1106 62 -46 115 -84 119 -84 3 0 31 -16 62 -36
65 -41 216 -114 288 -139 28 -9 57 -20 65 -25 19 -9 160 -47 255 -68 55 -12
162 -16 494 -19 470 -4 506 -1 706 65 50 16 105 33 122 37 18 3 35 11 38 16 4
5 16 9 29 9 12 0 27 5 33 11 6 6 29 15 50 20 21 4 58 13 83 19 104 27 182 3
480 -147 123 -62 230 -113 237 -113 15 0 16 27 3 170 -5 58 -10 202 -11 322
l-2 216 31 64 c17 35 53 90 80 123 128 159 166 227 216 380 40 125 56 275 56
525 0 286 -17 404 -87 610 -39 114 -50 140 -77 197 -14 29 -26 55 -26 58 0 12
-117 195 -154 240 -134 165 -270 296 -406 391 -139 97 -242 150 -455 234 -37
15 -120 38 -190 54 -71 15 -94 19 -200 36 -72 11 -584 17 -815 9z"/>
</g>
</svg>
