<?xml version="1.0" standalone="no"?>
<!DOCTYPE svg PUBLIC "-//W3C//DTD SVG 20010904//EN"
 "http://www.w3.org/TR/2001/REC-SVG-20010904/DTD/svg10.dtd">
<svg version="1.0" xmlns="http://www.w3.org/2000/svg"
 width="512.000000pt" height="512.000000pt" viewBox="0 0 512.000000 512.000000"
 preserveAspectRatio="xMidYMid meet">
<metadata>
Created by potrace 1.16, written by Peter Selinger 2001-2019
</metadata>
<g transform="translate(0.000000,512.000000) scale(0.100000,-0.100000)"
fill="#000000" stroke="none">
<path d="M2096 4455 c-40 -37 -46 -65 -46 -206 0 -146 9 -177 63 -209 38 -24
78 -25 121 -5 57 27 66 56 66 215 0 191 -21 230 -126 230 -40 0 -57 -5 -78
-25z"/>
<path d="M3271 3802 c-38 -6 -68 -30 -85 -67 -20 -41 -20 -68 -1 -109 33 -70
138 -90 196 -38 26 23 33 38 37 80 3 38 0 58 -12 77 -29 44 -83 67 -135 57z"/>
<path d="M2038 3700 c-510 -65 -921 -460 -1003 -965 -101 -621 296 -1198 915
-1331 102 -22 341 -25 440 -5 449 89 799 411 916 846 35 133 45 373 20 507
-45 238 -154 447 -320 613 -166 165 -360 271 -591 320 -86 19 -287 27 -377 15z
m168 -240 c7 0 -19 -33 -60 -72 -168 -167 -281 -386 -322 -623 -24 -137 -15
-368 20 -500 53 -202 179 -412 334 -556 l77 -71 -125 5 c-138 5 -238 31 -360
92 -206 104 -376 298 -452 515 -65 187 -65 413 0 600 115 332 424 575 772 610
41 4 81 6 88 4 8 -2 20 -4 28 -4z m444 -136 c190 -117 325 -286 398 -499 50
-146 59 -342 23 -489 -25 -106 -84 -234 -145 -320 -58 -82 -187 -201 -266
-248 -73 -43 -71 -43 -196 38 -197 129 -341 344 -390 581 -25 120 -15 321 21
433 51 159 116 265 232 383 70 70 204 167 233 167 9 0 49 -21 90 -46z"/>
<path d="M3674 2646 c-30 -30 -34 -40 -34 -86 0 -46 4 -56 34 -86 l34 -34 159
0 c173 0 189 4 218 60 29 55 12 130 -37 164 -18 13 -54 16 -181 16 l-159 0
-34 -34z"/>
<path d="M3228 1542 c-30 -18 -58 -67 -58 -102 0 -32 28 -87 53 -103 56 -36
130 -25 172 25 24 28 27 39 23 87 -4 45 -10 59 -37 83 -25 22 -41 28 -79 28
-26 0 -59 -8 -74 -18z"/>
<path d="M2113 1080 c-54 -32 -63 -63 -63 -209 0 -141 6 -169 46 -206 21 -20
38 -25 78 -25 105 0 126 39 126 230 0 159 -9 188 -66 215 -43 20 -83 19 -121
-5z"/>
</g>
</svg>
