<?xml version="1.0" standalone="no"?>
<!DOCTYPE svg PUBLIC "-//W3C//DTD SVG 20010904//EN"
 "http://www.w3.org/TR/2001/REC-SVG-20010904/DTD/svg10.dtd">
<svg version="1.0" xmlns="http://www.w3.org/2000/svg"
 width="24.000000pt" height="24.000000pt" viewBox="0 0 24.000000 24.000000"
 preserveAspectRatio="xMidYMid meet">
<metadata>
Created by potrace 1.16, written by Peter Selinger 2001-2019
</metadata>
<g transform="translate(0.000000,24.000000) scale(0.001172,-0.001172)"
fill="#000000" stroke="none">
<path d="M18255 17420 c-38 -4 -167 -11 -285 -15 -118 -4 -219 -11 -224 -16
-6 -5 -52 -9 -103 -9 -50 0 -114 -4 -140 -9 -26 -6 -85 -12 -130 -15 -45 -2
-86 -7 -90 -9 -5 -3 -48 -8 -96 -12 -48 -3 -99 -10 -113 -15 -14 -6 -44 -10
-67 -10 -23 0 -60 -5 -82 -10 -22 -5 -61 -10 -87 -11 -27 -2 -48 -6 -48 -11 0
-4 -29 -8 -64 -8 -35 0 -91 -6 -123 -14 -32 -8 -102 -20 -155 -27 -54 -6 -98
-15 -98 -20 0 -5 -27 -9 -61 -9 -33 0 -69 -4 -79 -10 -10 -5 -36 -12 -57 -15
-97 -12 -172 -28 -167 -36 3 -5 -17 -9 -45 -9 -27 0 -52 -4 -55 -9 -3 -5 -20
-11 -38 -14 -73 -13 -124 -25 -148 -34 -14 -6 -45 -17 -70 -24 -25 -7 -49 -16
-54 -21 -6 -4 -18 -8 -27 -8 -46 0 -169 -90 -169 -124 0 -9 -4 -16 -10 -16 -5
0 -10 -7 -10 -15 0 -8 -4 -23 -10 -33 -34 -59 -39 -107 -39 -366 0 -144 4
-274 9 -291 8 -28 21 -126 38 -305 4 -41 10 -80 15 -87 10 -16 10 -535 -1
-542 -14 -9 -21 -63 -11 -89 8 -20 14 -23 37 -17 15 3 29 11 30 16 2 5 14 9
27 9 13 0 27 5 30 10 3 6 15 10 26 10 10 0 19 3 19 8 0 4 34 20 75 37 41 16
75 33 75 37 0 5 9 8 20 8 11 0 20 4 20 9 0 5 11 11 25 13 25 5 30 10 -140
-149 -30 -29 -62 -53 -70 -53 -8 0 -15 -4 -15 -10 0 -5 -7 -10 -15 -10 -9 0
-18 -7 -21 -15 -4 -8 -12 -15 -20 -15 -8 0 -14 -4 -14 -10 0 -5 -9 -10 -20
-10 -30 0 -39 -65 -46 -335 -3 -99 -9 -184 -14 -189 -6 -6 -10 -58 -10 -117 0
-58 -4 -119 -10 -135 -14 -44 -31 -389 -36 -763 -3 -184 -9 -342 -15 -352 -12
-23 -12 -555 0 -578 5 -9 12 -118 15 -241 5 -234 19 -403 36 -432 6 -10 10
-36 10 -57 0 -22 5 -43 10 -46 6 -3 10 -28 10 -55 0 -27 5 -52 10 -55 6 -3 10
-17 10 -30 0 -13 4 -34 9 -47 5 -13 15 -45 22 -72 12 -49 71 -126 95 -126 7 0
14 -7 18 -15 3 -8 12 -15 20 -15 9 0 31 -9 51 -20 20 -11 49 -20 64 -20 16 0
31 -4 33 -10 3 -9 98 -28 173 -35 308 -29 419 -30 700 -5 66 6 164 14 219 19
89 6 101 10 121 33 l23 26 28 -27 c35 -34 69 -44 149 -44 91 -1 171 18 200 47
14 14 25 29 25 33 0 4 14 23 30 41 l30 32 100 0 c60 0 100 -4 100 -10 0 -5 8
-10 19 -10 10 0 35 -7 56 -16 20 -8 40 -13 42 -10 3 3 15 -1 27 -9 11 -8 35
-15 53 -15 17 0 34 -4 37 -9 7 -10 57 -20 141 -27 33 -3 64 -10 69 -15 13 -12
203 -12 211 1 4 6 92 10 230 10 138 0 226 -4 230 -10 3 -6 48 -10 100 -10 52
0 97 4 100 10 3 6 17 10 30 10 13 0 27 5 30 10 3 6 15 10 26 10 10 0 19 5 19
10 0 6 9 10 20 10 11 0 43 11 72 25 28 14 58 25 65 25 7 0 13 5 13 10 0 6 13
10 29 10 17 0 33 5 36 10 3 6 15 10 25 10 20 0 83 30 88 43 2 4 26 7 52 7 27
0 52 5 55 10 3 6 18 10 33 10 32 0 112 29 112 41 0 5 13 9 29 9 17 0 33 5 36
10 3 6 15 10 26 10 10 0 19 4 19 9 0 5 11 12 25 15 14 4 25 11 25 16 0 6 5 10
11 10 21 0 143 94 212 162 37 37 67 69 67 72 0 3 16 22 35 43 19 21 35 43 35
50 0 6 3 13 8 15 10 4 62 85 62 97 0 5 3 11 8 13 7 3 52 94 74 148 6 14 14 33
19 42 5 10 9 25 9 34 0 8 7 22 15 30 8 9 15 24 15 34 0 10 5 22 10 25 6 3 10
19 10 35 0 16 5 32 10 35 6 3 10 19 10 35 0 16 4 31 9 34 4 3 11 22 14 43 3
21 15 81 28 133 19 83 22 132 26 396 5 298 -6 496 -38 676 -5 32 -15 102 -20
155 -6 54 -14 134 -19 178 -5 44 -14 121 -18 170 -5 50 -12 97 -15 105 -3 8
-8 57 -11 109 -3 52 -10 97 -15 100 -5 4 -12 49 -15 101 -2 52 -9 133 -15 180
-5 47 -14 128 -19 180 -11 104 -28 221 -43 288 -5 23 -9 57 -9 74 0 34 -6 68
-45 269 -14 70 -25 138 -25 152 0 14 -4 29 -10 32 -5 3 -10 24 -10 45 0 21 -4
42 -10 45 -5 3 -10 16 -10 27 0 12 -4 35 -9 52 -5 17 -17 58 -26 91 -17 60
-22 75 -44 128 -6 15 -11 34 -11 42 0 13 -36 101 -61 147 -5 10 -9 23 -9 29 0
27 -99 161 -173 235 -45 44 -100 102 -122 129 -22 27 -58 68 -80 91 -22 23
-65 70 -95 105 -113 129 -230 225 -310 255 -8 3 -33 13 -55 21 -22 8 -49 19
-60 23 -31 12 -138 30 -176 30 -19 0 -39 4 -44 9 -6 5 -77 16 -160 25 -155 17
-318 19 -440 6z m136 -1313 c-5 -7 -10 -92 -11 -190 -1 -174 0 -179 22 -197
18 -15 39 -19 99 -20 41 0 86 -5 100 -12 27 -13 55 -66 85 -164 10 -33 22 -60
26 -62 5 -2 8 -32 8 -67 0 -35 5 -67 10 -70 6 -3 10 -28 10 -54 0 -27 4 -70 9
-97 5 -28 11 -88 12 -136 1 -47 5 -107 10 -134 4 -27 11 -265 15 -529 3 -264
11 -488 15 -497 13 -24 12 -525 -1 -533 -5 -3 -10 -26 -10 -50 0 -84 -57 -219
-119 -281 -50 -50 -68 -64 -81 -64 -5 0 -10 -4 -10 -10 0 -15 -215 -13 -243 3
-12 6 -24 14 -27 17 -3 3 -33 19 -67 35 -35 17 -63 33 -63 38 0 4 -18 7 -41 7
-24 0 -38 -4 -34 -10 4 -6 -13 -10 -44 -10 -27 0 -53 -4 -56 -10 -3 -5 -30
-10 -60 -10 -30 0 -56 -4 -59 -9 -3 -5 -33 -11 -67 -13 -33 -2 -64 -9 -67 -15
-8 -12 -62 -22 -164 -29 -38 -3 -68 -10 -68 -15 0 -5 -6 -9 -14 -9 -16 0 -110
-51 -114 -62 -2 -4 -15 -8 -28 -8 -13 0 -24 -4 -24 -10 0 -5 -7 -10 -15 -10
-8 0 -15 -4 -15 -10 0 -5 -7 -10 -15 -10 -9 0 -18 -7 -21 -15 -4 -8 -11 -15
-18 -15 -6 0 -40 -27 -75 -60 -36 -33 -67 -60 -69 -60 -2 0 -1 10 3 23 13 41
24 278 35 746 14 628 -9 2192 -35 2355 l-8 49 35 -26 c19 -15 47 -27 61 -27
14 0 29 -4 32 -10 3 -5 41 -10 84 -10 43 0 82 -5 88 -11 14 -14 245 -28 581
-36 234 -5 268 -3 301 12 l38 17 7 126 c12 225 17 266 39 312 l21 45 4 -48 c2
-27 -1 -54 -7 -60z"/>
<path d="M13123 17403 c-18 -2 -33 -8 -33 -14 0 -5 -8 -9 -19 -9 -28 0 -155
-63 -189 -93 -10 -10 -24 -17 -30 -17 -7 0 -12 -4 -12 -8 0 -5 -16 -17 -35
-28 -19 -10 -35 -22 -35 -26 0 -5 -4 -8 -10 -8 -5 0 -31 -13 -57 -30 -26 -16
-43 -30 -38 -30 11 0 -52 -38 -77 -46 -10 -4 -18 -10 -18 -14 0 -4 -16 -15
-35 -26 -19 -10 -35 -22 -35 -26 0 -5 -7 -8 -15 -8 -8 0 -15 -4 -15 -10 0 -5
-7 -10 -15 -10 -9 0 -18 -7 -21 -15 -4 -8 -12 -15 -19 -15 -6 0 -20 -9 -30
-20 -10 -11 -22 -20 -28 -20 -5 0 -31 -16 -57 -35 -26 -19 -53 -35 -59 -35 -6
0 -11 -4 -11 -10 0 -5 -5 -10 -11 -10 -6 0 -17 -6 -24 -12 -36 -32 -46 -38
-65 -38 -11 0 -20 -4 -20 -10 0 -5 -6 -10 -13 -10 -8 0 -36 -11 -63 -25 -27
-14 -57 -25 -66 -25 -10 0 -18 -4 -18 -10 0 -5 -16 -10 -35 -10 -19 0 -35 -4
-35 -10 0 -6 -42 -10 -105 -10 -63 0 -105 4 -105 10 0 15 -69 12 -84 -3 -8 -7
-21 -27 -30 -45 -9 -18 -21 -32 -26 -32 -6 0 -10 -7 -10 -17 0 -9 -11 -31 -25
-49 -14 -18 -25 -37 -25 -43 0 -6 -4 -11 -10 -11 -5 0 -10 -5 -10 -12 0 -6
-11 -26 -25 -44 -14 -18 -25 -37 -25 -43 0 -6 -4 -11 -10 -11 -5 0 -10 -9 -10
-20 0 -11 -4 -20 -10 -20 -5 0 -10 -6 -10 -14 0 -8 -3 -16 -7 -18 -11 -4 -63
-85 -63 -97 0 -5 -4 -11 -8 -13 -11 -4 -82 -115 -82 -128 0 -6 -4 -10 -10 -10
-5 0 -10 -7 -10 -15 0 -9 -8 -24 -17 -35 -10 -10 -27 -36 -38 -57 -11 -21 -30
-49 -42 -63 -13 -14 -23 -30 -23 -37 0 -7 -4 -13 -10 -13 -5 0 -10 -6 -10 -14
0 -8 -4 -16 -8 -18 -5 -1 -25 -28 -45 -58 -20 -30 -41 -60 -45 -65 -5 -6 -17
-24 -28 -40 -10 -17 -27 -39 -36 -49 -10 -11 -18 -25 -18 -31 0 -7 -16 -29
-35 -49 -19 -21 -35 -41 -35 -46 0 -5 -21 -31 -47 -58 -27 -27 -64 -66 -84
-88 -20 -21 -55 -55 -78 -74 -22 -19 -41 -43 -41 -52 0 -10 -4 -18 -10 -18 -5
0 -10 -7 -10 -16 0 -8 -11 -30 -25 -48 -14 -18 -25 -38 -25 -44 0 -7 -4 -12
-10 -12 -5 0 -10 -7 -10 -15 0 -8 -15 -38 -33 -67 -19 -29 -40 -68 -48 -85 -8
-18 -17 -33 -21 -33 -5 0 -8 -7 -8 -15 0 -9 -11 -33 -25 -55 -14 -22 -25 -46
-25 -55 0 -8 -4 -15 -10 -15 -5 0 -10 -9 -10 -20 0 -11 -4 -20 -9 -20 -11 0
-61 -87 -61 -105 0 -8 -4 -15 -9 -17 -8 -3 -56 -87 -120 -213 -20 -38 -38 -72
-41 -75 -14 -14 -80 -157 -80 -173 0 -11 9 -21 20 -24 19 -5 20 -14 20 -239 0
-144 -4 -235 -10 -239 -5 -3 -10 -31 -10 -61 0 -30 5 -54 10 -54 6 0 10 -12
10 -26 0 -28 23 -75 55 -111 35 -39 45 -52 46 -60 0 -4 22 -26 49 -48 51 -42
59 -55 35 -55 -8 0 -15 -4 -15 -10 0 -5 -7 -10 -15 -10 -15 0 -23 -3 -83 -33
-19 -9 -42 -17 -53 -17 -40 0 -59 -30 -59 -96 0 -34 -4 -64 -9 -66 -36 -14
-38 -1425 -2 -1461 6 -6 11 -39 11 -73 0 -35 5 -66 10 -69 6 -3 10 -15 10 -25
0 -25 13 -32 45 -24 18 4 25 13 25 30 0 13 4 24 9 24 5 0 13 9 16 20 7 21 176
200 189 200 4 0 24 16 44 35 20 19 43 35 51 35 10 0 8 -5 -5 -17 -11 -10 -33
-36 -49 -58 -16 -22 -44 -55 -62 -73 -18 -18 -33 -38 -33 -44 0 -6 -11 -20
-23 -32 -13 -11 -34 -37 -47 -56 -13 -19 -27 -37 -30 -40 -11 -10 -30 -62 -30
-83 1 -25 22 -57 39 -57 6 0 11 -4 11 -10 0 -5 19 -10 43 -10 26 0 37 -3 29
-9 -9 -5 12 -10 55 -14 87 -7 284 4 258 14 -11 4 29 8 93 8 67 1 112 5 112 11
0 6 37 10 91 10 50 0 98 4 107 9 9 5 52 11 96 14 43 3 83 10 89 16 6 6 47 11
95 11 53 0 81 4 77 10 -4 6 27 10 87 10 51 0 109 4 128 10 41 11 100 17 271
28 87 5 132 12 145 22 29 23 53 54 54 68 0 6 5 12 10 12 6 0 10 9 10 20 0 11
5 20 10 20 6 0 10 5 10 10 0 6 11 33 25 62 14 28 25 62 25 75 0 13 4 31 9 41
11 20 28 108 44 217 13 93 16 747 4 900 -4 55 -15 135 -24 178 -9 42 -14 80
-10 83 3 3 18 -7 35 -23 49 -46 71 -63 86 -63 8 0 16 -5 18 -11 4 -11 59 -28
118 -36 19 -2 44 -8 55 -12 49 -20 94 -31 123 -31 17 0 43 -5 59 -11 33 -12
132 -29 218 -36 l60 -4 -8 -157 c-7 -150 -20 -525 -32 -976 -4 -141 -3 -212 4
-219 6 -6 11 -25 11 -42 0 -43 27 -66 131 -114 32 -15 468 -9 549 8 30 7 89
16 130 22 40 5 76 13 80 18 3 4 30 11 60 15 92 10 130 18 130 26 0 4 21 10 48
13 61 6 144 27 156 38 6 5 25 9 43 9 18 0 33 5 33 10 0 6 22 10 48 10 26 0 52
4 58 10 5 5 23 11 39 13 51 6 135 30 135 39 0 4 23 8 50 8 28 0 50 4 50 9 0 5
12 11 28 14 61 13 122 34 116 40 -4 4 11 7 34 7 23 0 42 5 42 10 0 6 13 10 29
10 17 0 33 5 36 10 3 6 15 10 25 10 10 0 25 7 34 15 8 8 26 15 40 15 14 0 28
5 31 10 3 6 15 10 26 10 10 0 19 4 19 9 0 5 10 11 23 15 29 7 97 69 97 89 0 8
5 17 12 19 21 7 23 140 3 200 -26 79 -28 83 -91 213 -43 90 -60 136 -65 185
-15 123 -27 205 -33 230 -7 25 -55 60 -82 60 -8 0 -14 5 -14 10 0 6 -9 10 -21
10 -11 0 -17 5 -14 10 4 6 -7 13 -24 16 -17 4 -31 10 -31 15 0 5 -9 9 -20 9
-11 0 -20 5 -20 10 0 6 -9 10 -20 10 -11 0 -20 4 -20 10 0 5 -12 13 -27 16
-16 4 -32 9 -37 12 -12 7 63 32 96 32 15 0 30 5 33 10 3 6 18 10 33 10 15 1
37 9 49 19 21 17 22 28 27 232 12 506 25 998 32 1179 l7 195 -41 85 c-46 95
-121 232 -131 240 -3 3 -14 21 -24 40 -9 19 -27 51 -40 71 -12 20 -58 99 -102
175 -43 77 -82 141 -85 144 -3 3 -18 31 -35 63 -16 31 -33 57 -37 57 -4 0 -8
9 -8 20 0 11 -4 20 -10 20 -5 0 -10 4 -10 10 0 5 -20 41 -45 80 -25 39 -45 72
-45 75 0 6 -72 129 -79 135 -4 3 -15 24 -25 48 -11 23 -23 42 -28 42 -4 0 -8
7 -8 15 0 8 -3 15 -8 15 -4 0 -14 15 -21 33 -8 17 -30 56 -48 84 -18 29 -44
72 -56 95 -33 61 -51 92 -58 98 -3 3 -13 23 -23 45 -11 22 -22 42 -26 45 -5 3
-23 32 -40 65 -18 33 -38 67 -44 75 -6 8 -22 35 -36 60 -13 25 -34 59 -47 76
-13 17 -23 38 -23 47 0 10 -3 17 -7 17 -5 0 -21 27 -38 60 -16 33 -33 60 -37
60 -4 0 -8 9 -8 20 0 11 -3 20 -7 20 -5 0 -17 19 -28 43 -11 23 -22 44 -25 47
-3 3 -18 30 -33 60 -15 30 -32 62 -37 70 -14 21 -94 192 -98 210 -3 8 -4 29
-4 45 0 68 -22 138 -54 170 -42 43 -101 53 -221 38z m-813 -2095 c0 -6 10 -25
23 -42 12 -17 31 -48 42 -69 11 -21 28 -45 38 -54 9 -9 17 -24 17 -34 0 -9 4
-19 8 -21 5 -1 39 -48 77 -103 37 -55 77 -111 89 -125 11 -14 30 -38 40 -55
11 -16 28 -38 38 -49 10 -11 18 -26 18 -33 0 -7 5 -13 10 -13 6 0 10 -6 10
-14 0 -8 3 -16 8 -18 13 -6 82 -117 82 -133 0 -8 5 -15 10 -15 6 0 10 -26 10
-57 0 -32 7 -71 15 -87 8 -15 15 -43 15 -60 0 -18 5 -37 12 -44 9 -9 -56 -12
-296 -12 -202 0 -305 -3 -301 -10 4 -6 -34 -10 -106 -10 l-111 0 14 23 c8 12
21 43 29 70 7 26 17 47 21 47 4 0 8 13 8 28 0 15 4 32 8 37 5 6 17 33 26 60
10 28 22 60 28 71 11 24 6 100 -11 181 -9 42 -9 59 4 95 8 23 15 53 15 65 0
12 4 24 9 27 4 3 11 23 14 44 9 68 72 322 80 322 4 0 7 -5 7 -12z"/>
<path d="M4515 17370 c-11 -5 -32 -9 -47 -9 -16 -1 -28 -4 -28 -9 0 -12 -118
-40 -220 -52 -52 -6 -150 -11 -217 -12 -68 -1 -123 -5 -123 -10 0 -11 -1007
-10 -1014 1 -4 5 -95 10 -204 11 -209 3 -236 4 -348 15 -40 4 -83 5 -97 2 -22
-6 -64 -44 -116 -105 -24 -29 -28 -28 -83 23 -24 23 -58 51 -76 64 l-34 23
-671 -6 c-586 -6 -1001 -13 -1074 -20 -13 -1 -26 -5 -29 -9 -4 -4 -15 -7 -24
-7 -23 0 -79 -58 -86 -89 -3 -14 -10 -35 -15 -46 -18 -38 4 -1000 24 -1032 3
-5 9 -59 12 -119 4 -60 11 -161 16 -224 19 -247 10 -478 -23 -547 -8 -17 -7
-31 7 -60 25 -52 31 -207 16 -426 -13 -179 -13 -175 25 -262 14 -33 110 -145
125 -145 4 0 29 -15 55 -32 35 -26 42 -34 27 -37 -10 -2 -22 -7 -28 -11 -5 -4
-22 -10 -38 -14 -15 -3 -27 -11 -27 -16 0 -6 -11 -10 -25 -10 -14 0 -25 -4
-25 -10 0 -5 -13 -10 -30 -10 -16 0 -30 -4 -30 -10 0 -5 -9 -10 -20 -10 -40 0
-45 -30 -53 -380 -21 -858 -2 -2251 32 -2347 1 -2 1 -25 1 -51 0 -61 28 -97
69 -87 30 8 41 21 41 53 0 12 3 22 8 22 4 0 14 11 22 25 19 31 159 175 170
175 5 0 25 16 46 35 50 48 54 38 6 -16 -22 -24 -63 -75 -93 -114 -29 -38 -55
-72 -58 -75 -28 -24 -101 -142 -101 -164 0 -15 42 -56 58 -56 7 0 12 -4 12
-10 0 -5 18 -10 41 -10 22 0 38 -4 35 -9 -3 -5 18 -11 47 -14 73 -7 286 4 262
14 -12 4 26 8 88 8 64 1 107 5 107 11 0 6 39 10 96 10 52 0 103 4 113 10 10 5
45 10 77 11 33 1 76 8 98 15 21 8 71 14 110 14 47 0 66 3 56 10 -9 6 25 10
100 14 63 2 151 9 195 15 44 7 137 15 206 19 116 7 127 9 150 33 26 28 46 56
55 79 3 8 10 23 15 32 5 10 9 25 9 33 0 8 4 15 8 15 15 0 35 85 58 245 3 22
10 44 15 50 5 5 9 52 9 105 0 63 4 100 13 108 15 16 20 1219 5 1352 -5 47 -12
139 -14 205 -3 66 -9 124 -15 130 -14 14 -11 55 4 55 8 0 24 -11 37 -25 13
-14 31 -25 41 -25 10 0 21 -4 24 -10 3 -5 17 -10 31 -10 13 0 24 -4 24 -10 0
-6 107 -10 303 -9 175 0 294 4 282 9 -12 5 176 11 445 13 476 6 1021 20 1212
33 72 4 112 11 119 20 6 8 22 14 35 14 13 0 24 5 24 10 0 6 6 10 13 10 20 0
102 84 114 116 22 62 33 101 33 120 0 11 4 24 9 29 9 10 17 59 27 170 3 33 11
63 16 66 13 8 28 76 35 159 3 36 9 69 14 74 5 6 9 54 9 109 0 63 4 96 10 92 6
-3 11 0 11 7 3 31 21 -87 29 -192 16 -210 32 -303 63 -370 21 -46 115 -150
134 -150 6 0 16 -7 23 -15 11 -13 4 -15 -57 -15 -64 0 -71 -2 -83 -24 -13 -25
-12 -35 10 -181 6 -38 13 -95 16 -125 3 -30 9 -64 14 -75 7 -17 23 -105 59
-320 17 -103 53 -260 62 -270 5 -5 9 -24 9 -41 0 -18 4 -35 9 -38 4 -3 11 -22
13 -43 6 -39 61 -166 84 -193 7 -8 24 -45 37 -81 59 -157 211 -417 314 -538
52 -61 188 -201 196 -201 3 0 18 -12 34 -27 31 -30 45 -41 108 -88 22 -17 49
-38 59 -47 11 -10 23 -18 28 -18 4 0 30 -16 57 -35 26 -19 54 -35 60 -35 7 0
24 -11 39 -25 15 -14 32 -25 39 -25 7 0 13 -4 13 -10 0 -5 11 -10 25 -10 14 0
25 -3 25 -8 0 -4 17 -16 38 -26 20 -10 45 -22 54 -27 10 -5 29 -9 43 -9 14 0
25 -4 25 -10 0 -5 7 -10 15 -10 13 0 65 -20 107 -41 10 -5 33 -9 52 -9 19 0
37 -4 40 -9 7 -11 61 -21 149 -28 37 -2 67 -9 67 -14 0 -5 45 -9 100 -9 60 0
100 4 100 10 0 6 78 10 214 10 133 0 217 -4 221 -10 3 -6 52 -10 111 -10 63 0
104 4 104 10 0 6 7 10 16 10 18 0 84 62 84 79 0 6 5 11 10 11 6 0 10 9 10 20
0 11 4 20 9 20 5 0 16 27 23 61 l14 61 35 -69 36 -68 48 -3 c27 -2 58 1 69 6
12 5 40 18 64 27 23 10 42 22 42 27 0 4 9 8 20 8 11 0 20 5 20 10 0 6 7 10 15
10 14 0 61 25 75 40 3 3 18 12 35 20 16 8 40 23 52 34 12 10 31 24 41 30 51
29 121 83 165 128 27 26 51 48 53 48 6 0 44 39 44 46 0 4 17 23 39 44 21 21
58 64 82 96 24 33 46 61 49 64 16 16 80 132 80 146 0 12 21 66 41 106 5 10 9
31 9 48 0 16 5 30 10 30 6 0 10 18 10 40 0 22 4 40 9 40 5 0 15 21 21 48 6 26
16 65 22 87 5 22 12 61 15 88 3 26 9 47 13 47 4 0 10 15 13 33 3 17 13 64 22
102 9 39 19 84 22 100 2 17 8 39 13 50 9 22 17 61 27 140 3 28 10 53 16 56 5
4 13 38 19 75 18 136 20 149 29 159 5 5 9 30 9 56 0 26 4 49 9 51 5 2 14 32
20 68 5 36 15 85 21 110 7 25 14 65 16 90 3 25 9 54 14 65 5 11 11 40 14 65 2
25 12 77 21 115 9 39 18 95 21 125 3 30 9 64 14 75 5 11 12 47 15 80 9 77 21
171 35 265 15 105 6 165 -30 201 -16 16 -34 29 -41 29 -6 0 -17 8 -24 17 -10
13 -29 17 -91 17 -103 -1 -182 -13 -163 -25 9 -5 -29 -9 -101 -9 -78 0 -110
-3 -100 -10 10 -7 -15 -10 -80 -10 -108 0 -112 15 -5 24 79 6 186 21 260 35
28 5 72 10 98 10 29 1 46 5 42 11 -4 6 8 10 28 10 52 0 125 45 158 98 16 25
29 53 29 62 0 9 5 21 11 27 7 7 9 52 5 134 -9 223 -26 551 -36 694 -5 77 -12
176 -15 220 -11 165 -14 204 -31 360 -9 88 -18 198 -21 245 -2 47 -9 89 -14
94 -5 6 -9 31 -9 57 0 87 -87 189 -162 189 -19 0 -38 -3 -42 -7 -4 -5 -134
-13 -289 -20 -155 -7 -345 -17 -422 -23 -77 -5 -188 -13 -247 -16 -60 -4 -108
-10 -108 -15 0 -5 -6 -9 -13 -9 -8 0 -22 -9 -31 -19 -16 -17 -20 -18 -46 -5
-25 13 -35 12 -97 -7 -37 -11 -76 -25 -85 -30 -10 -5 -31 -9 -48 -9 -16 0 -30
-4 -30 -10 0 -5 -9 -10 -19 -10 -56 0 -181 -88 -181 -127 0 -7 -4 -13 -9 -13
-24 0 -33 -215 -14 -320 10 -53 64 -225 83 -265 5 -11 17 -67 25 -125 46 -297
56 -367 59 -414 3 -28 9 -94 15 -146 5 -52 15 -142 21 -200 29 -285 29 -1206
0 -1421 -7 -46 -16 -120 -21 -164 -15 -138 -40 -298 -59 -365 -5 -19 -19 -78
-30 -130 -20 -87 -58 -215 -79 -265 -5 -11 -22 -51 -37 -90 -52 -128 -251
-505 -267 -505 -4 0 -6 10 -2 23 19 71 29 103 37 112 4 5 8 22 8 37 0 15 3 28
8 28 4 0 12 15 18 33 27 77 47 133 55 149 5 10 9 35 9 57 0 37 -2 40 -45 57
-25 9 -45 21 -45 25 0 5 -7 9 -15 9 -8 0 -15 5 -15 10 0 6 -7 10 -16 10 -9 0
-24 8 -33 18 -9 10 -34 31 -56 48 -21 16 -51 40 -65 54 -15 14 -46 43 -71 66
-24 22 -51 53 -59 70 -8 16 -19 34 -25 41 -5 7 -16 19 -22 27 -7 8 -13 22 -13
31 0 8 -4 23 -9 33 -30 60 -38 92 -50 216 -6 62 -12 82 -26 90 -47 27 -95 89
-95 124 0 15 -5 33 -10 38 -19 19 1 854 20 854 14 0 40 55 40 83 0 54 -92 101
-154 79 -18 -7 -42 -12 -54 -12 -12 0 -22 -4 -22 -10 0 -5 -9 -10 -20 -10 -11
0 -20 -4 -20 -10 0 -5 -9 -10 -19 -10 -11 0 -23 -4 -26 -10 -3 -5 -23 -17 -43
-26 -20 -8 -45 -20 -54 -25 -20 -10 -48 -12 -48 -3 0 9 24 30 43 37 9 3 17 11
17 17 0 5 7 10 15 10 8 0 15 5 15 10 0 6 9 10 20 10 11 0 28 4 38 9 9 5 35 17
57 27 22 11 42 22 43 27 2 4 17 7 33 7 16 0 29 4 29 9 0 5 11 12 25 15 27 7
75 48 75 64 0 6 4 12 10 14 5 2 12 64 16 138 3 74 8 139 11 143 5 8 22 186 29
312 3 39 9 79 13 90 5 11 14 74 21 140 19 194 30 285 61 485 5 36 12 89 15
118 3 28 10 52 14 52 5 0 12 14 15 32 4 17 16 47 26 65 11 19 19 42 19 53 0
11 5 20 10 20 6 0 10 20 10 45 0 25 -4 45 -10 45 -5 0 -10 18 -10 40 0 22 -4
40 -10 40 -5 0 -10 7 -10 15 0 8 -11 25 -25 39 -14 14 -25 28 -25 31 0 10 -78
85 -89 85 -6 0 -11 4 -11 9 0 5 -21 19 -47 32 -44 21 -61 23 -218 22 -93 0
-219 -6 -280 -13 -212 -24 -269 -80 -286 -280 -5 -52 -13 -115 -18 -140 -13
-58 -55 -212 -62 -225 -3 -5 -11 -30 -18 -55 -7 -25 -17 -53 -22 -62 -5 -10
-9 -24 -9 -32 0 -28 -42 -106 -63 -117 -12 -7 -29 -20 -38 -31 -9 -10 -21 -18
-28 -18 -6 0 -11 -4 -11 -10 0 -5 -6 -10 -13 -10 -7 0 -24 -11 -39 -25 -15
-14 -32 -25 -38 -25 -5 0 -10 -4 -10 -10 0 -5 -7 -10 -15 -10 -8 0 -15 -5 -15
-12 0 -6 -3 -8 -7 -5 -3 4 1 15 9 24 8 10 21 33 29 51 8 17 17 32 21 32 5 0 8
7 8 15 0 8 5 15 10 15 6 0 10 7 10 15 0 9 10 32 23 53 12 20 28 48 34 62 6 14
21 48 34 75 34 73 49 117 49 143 0 12 5 22 10 22 6 0 10 9 10 21 0 11 6 33 14
47 16 32 36 112 36 147 0 13 5 27 10 30 6 3 10 19 10 34 0 15 3 31 8 35 12 12
34 125 39 201 4 70 4 71 -27 95 -69 53 -140 61 -266 31 -48 -12 -124 -21 -194
-22 -63 -2 -120 -6 -125 -10 -6 -4 -44 -9 -85 -10 -115 -4 -184 -29 -232 -83
-30 -35 -68 -101 -68 -121 0 -7 -7 -18 -14 -25 -8 -6 -20 -28 -26 -48 -11 -35
-17 -51 -40 -104 -34 -82 -44 -165 -42 -373 1 -115 4 -244 6 -285 3 -41 8
-115 11 -165 4 -49 11 -144 17 -210 5 -66 13 -190 18 -275 5 -85 12 -194 16
-242 5 -64 4 -88 -5 -88 -6 0 -11 7 -11 16 0 20 -54 74 -74 74 -8 0 -18 5 -21
10 -4 6 -111 11 -283 12 -152 1 -250 4 -217 8 75 8 -550 16 -825 11 -117 -2
-194 -7 -180 -11 18 -6 5 -8 -42 -9 -37 -1 -70 -5 -73 -11 -3 -5 -14 -10 -24
-10 -33 0 -117 -97 -166 -192 l-19 -36 -13 25 c-7 14 -13 31 -13 39 0 7 -6 17
-12 21 -7 4 -21 22 -30 38 l-17 30 -558 6 c-539 6 -659 12 -648 29 3 5 -9 12
-27 15 -45 10 -61 21 -135 93 -35 34 -68 62 -74 62 -5 0 -9 5 -9 11 0 6 5 7
13 2 6 -4 15 -8 18 -8 5 0 23 -13 108 -80 43 -34 79 -55 96 -55 8 0 15 -4 15
-9 0 -4 20 -16 45 -25 66 -26 226 -26 288 0 26 10 47 22 47 27 0 4 6 7 13 7
22 0 67 97 67 147 0 12 5 25 10 28 6 3 10 18 10 33 0 15 7 36 15 46 17 23 19
76 6 124 -16 53 -1 45 74 -42 52 -60 81 -61 136 -5 39 40 108 78 142 79 9 0
17 5 17 10 0 6 25 10 55 10 30 0 55 5 55 10 0 6 102 10 285 10 183 0 285 -4
285 -10 0 -6 59 -10 156 -10 101 0 153 -3 149 -10 -4 -6 8 -10 27 -11 18 0 98
-5 178 -10 80 -5 179 -12 220 -15 41 -2 91 -7 110 -10 49 -9 196 -6 250 4 63
12 98 37 109 81 17 67 31 157 31 199 0 22 5 44 10 47 6 3 10 42 10 85 0 43 4
81 9 84 4 3 11 47 15 97 4 51 14 140 22 198 9 58 18 149 21 201 3 52 9 99 14
105 5 5 9 57 9 116 0 61 4 111 10 114 6 3 10 30 10 60 0 30 4 56 9 60 6 3 13
27 16 53 3 26 10 55 16 64 16 31 11 201 -8 239 -20 42 -70 89 -94 89 -10 0
-21 5 -24 10 -7 12 -72 12 -100 0z"/>
<path d="M3790 10850 c-8 -5 -30 -10 -47 -10 -18 0 -33 -4 -33 -10 0 -5 -13
-10 -28 -10 -16 0 -47 -9 -70 -20 -31 -15 -61 -20 -124 -20 -58 0 -100 6 -138
20 -30 11 -67 20 -82 20 -15 0 -30 5 -33 10 -8 12 -185 13 -185 1 0 -23 -170
-41 -471 -49 l-266 -7 -31 -32 c-18 -17 -32 -38 -32 -46 0 -8 -8 -29 -17 -48
-16 -29 -18 -62 -17 -239 1 -140 7 -234 18 -298 9 -50 16 -138 16 -195 0 -57
5 -108 10 -113 7 -7 11 -122 13 -313 2 -247 0 -303 -12 -310 -10 -6 -12 -19
-7 -42 4 -19 10 -50 12 -70 l6 -36 -228 -6 c-149 -4 -229 -9 -234 -17 -4 -7
-41 -10 -106 -8 -76 2 -92 5 -69 12 17 5 45 20 63 33 25 19 32 31 32 59 0 18
5 34 10 34 6 0 10 16 10 35 0 19 5 35 10 35 6 0 10 9 10 21 0 11 7 27 15 35
19 20 19 48 0 68 -19 19 -21 152 -2 158 20 7 29 201 29 618 1 390 -7 530 -30
538 -6 2 -12 17 -12 33 0 16 -4 29 -9 29 -5 0 -11 9 -14 20 -9 33 -44 23 -89
-25 -23 -25 -46 -45 -50 -45 -5 0 -29 20 -55 45 l-46 45 -648 0 c-421 0 -650
-3 -654 -10 -3 -5 -23 -10 -43 -10 -47 0 -103 -48 -121 -105 -19 -60 -25 -272
-11 -435 6 -80 13 -183 16 -230 3 -78 13 -194 31 -375 10 -111 7 -344 -6 -408
-10 -50 -9 -63 5 -92 13 -29 15 -57 10 -172 -3 -76 -8 -162 -12 -192 -10 -89
16 -148 111 -249 51 -56 53 -62 16 -62 -17 0 -31 -4 -31 -10 0 -5 -8 -10 -18
-10 -27 0 -81 -29 -91 -49 -17 -31 -26 -357 -26 -931 0 -615 9 -985 27 -1123
10 -77 14 -90 33 -97 32 -12 59 -6 63 14 4 19 14 33 74 100 44 49 59 46 17 -4
-70 -84 -89 -115 -89 -147 0 -46 43 -78 120 -91 60 -10 218 -9 251 2 8 3 48 7
89 10 84 6 190 18 295 35 39 6 95 13 125 17 30 3 91 10 135 15 44 5 134 14
200 19 173 14 182 16 216 63 16 22 29 44 29 49 0 5 9 28 20 50 11 23 20 59 20
80 0 21 4 38 9 38 4 0 11 35 16 78 4 42 11 111 15 152 42 378 38 913 -10 1279
-6 41 -8 76 -6 79 4 4 66 -39 93 -65 7 -6 39 -17 70 -24 32 -7 62 -16 67 -21
6 -4 25 -8 43 -8 18 0 41 -4 51 -9 21 -12 147 -31 201 -31 l41 0 0 -162 c-1
-90 -5 -183 -10 -208 -17 -86 -42 -719 -37 -955 5 -233 12 -286 47 -336 37
-51 137 -83 260 -81 76 1 350 34 380 45 8 3 29 8 45 10 74 11 156 30 161 38 3
5 20 9 39 9 19 0 44 4 57 9 13 5 58 17 101 26 42 10 77 21 77 26 0 5 13 9 30
9 29 0 106 16 145 30 88 31 209 68 258 77 15 3 27 8 27 12 0 4 20 13 46 20 25
7 51 20 59 27 7 8 17 14 22 14 4 0 20 18 36 39 25 36 27 47 27 135 0 57 -4 96
-10 96 -5 0 -10 8 -10 18 0 10 -11 42 -25 70 -14 29 -25 56 -25 62 0 5 -3 10
-7 10 -12 0 -33 51 -33 76 0 13 -4 26 -10 29 -5 3 -10 21 -10 38 -1 18 -7 43
-15 57 -8 14 -14 38 -15 53 0 16 -4 26 -10 22 -6 -4 -10 11 -10 37 0 38 -4 46
-29 61 -16 9 -39 17 -50 17 -12 0 -29 4 -39 9 -9 5 -26 13 -37 17 -16 5 -9 10
33 23 37 11 61 25 75 46 22 30 22 30 29 840 9 948 15 1215 28 1215 6 0 10 38
10 88 0 48 5 103 12 122 11 33 23 242 34 600 3 91 9 169 14 174 6 6 10 40 10
76 0 36 5 71 11 77 6 6 13 53 16 104 5 86 3 96 -17 122 -12 16 -31 27 -45 27
-13 0 -27 5 -30 10 -8 13 -55 13 -75 0z"/>
<path d="M20290 10850 c-8 -5 -30 -10 -47 -10 -18 0 -33 -4 -33 -10 0 -5 -10
-10 -23 -10 -13 0 -42 -9 -65 -20 -65 -32 -255 -24 -296 12 -6 4 -27 8 -48 8
-21 0 -38 5 -38 10 0 6 -35 10 -84 10 -47 0 -88 -4 -91 -10 -3 -5 -17 -10 -31
-10 -14 0 -33 -4 -43 -10 -24 -12 -127 -19 -430 -28 -189 -5 -255 -10 -259
-19 -2 -7 -10 -13 -18 -13 -7 0 -16 -11 -20 -25 -3 -14 -10 -25 -15 -25 -5 0
-9 -16 -9 -35 0 -19 -5 -35 -11 -35 -16 0 2 -453 21 -537 6 -23 10 -63 10 -90
0 -26 4 -66 9 -88 5 -22 12 -101 16 -175 3 -74 10 -139 16 -144 11 -12 12
-123 0 -128 -4 -1 -12 -34 -16 -73 -14 -123 -13 -126 32 -210 6 -11 19 -38 29
-60 11 -22 22 -41 27 -43 4 -2 7 -9 7 -17 0 -10 39 -92 77 -160 12 -21 55
-112 61 -130 9 -23 -46 65 -74 117 -16 32 -32 58 -36 58 -5 0 -8 8 -8 18 0 9
-9 28 -20 42 -11 14 -20 30 -20 37 0 6 -6 18 -13 25 -6 7 -30 49 -52 93 -22
44 -43 82 -47 83 -5 2 -8 10 -8 17 0 7 -3 15 -7 17 -5 2 -19 23 -31 48 -62
118 -95 176 -108 191 -8 8 -14 23 -14 32 0 9 -3 17 -7 17 -9 0 -33 49 -33 67
0 7 -4 13 -9 13 -5 0 -13 10 -17 23 -4 12 -10 24 -13 27 -3 3 -24 40 -46 82
-22 43 -43 78 -47 78 -5 0 -8 7 -8 14 0 8 -16 42 -35 75 -43 72 -45 112 -10
207 20 56 23 74 14 95 -10 27 -13 70 -10 196 2 70 -23 173 -41 173 -5 0 -8 8
-8 18 -1 24 -67 112 -85 112 -8 0 -36 -22 -62 -48 l-48 -49 -50 49 -49 48
-649 0 c-561 0 -652 -2 -677 -15 -17 -9 -30 -13 -30 -10 0 4 -22 -6 -50 -21
-29 -16 -50 -34 -50 -44 0 -9 -5 -21 -11 -27 -18 -18 3 -192 40 -322 12 -41
21 -85 21 -97 0 -13 5 -26 10 -29 13 -8 13 -265 0 -265 -31 0 -32 -432 -1
-463 6 -6 11 -17 11 -24 0 -20 43 -68 108 -120 l23 -18 -42 0 c-40 0 -43 -2
-51 -33 -10 -39 -27 -333 -38 -682 -5 -140 -13 -334 -18 -430 -19 -327 -43
-1586 -36 -1795 7 -169 20 -206 82 -237 42 -20 64 -23 200 -26 84 -2 190 1
235 7 45 6 127 14 182 16 55 3 127 8 160 11 139 12 299 24 430 33 186 13 203
18 237 66 15 22 27 48 28 58 0 9 4 17 9 17 5 0 11 10 14 23 3 12 12 47 20 77
17 62 42 226 54 345 10 103 9 1104 -2 1254 l-7 114 33 -24 c45 -31 51 -37 74
-82 11 -21 28 -47 38 -57 9 -11 17 -22 17 -25 0 -13 91 -133 144 -190 31 -33
56 -63 56 -67 0 -5 7 -8 15 -8 8 0 15 -4 15 -10 0 -5 38 -49 85 -97 l86 -88
-6 -100 c-3 -55 -10 -158 -15 -230 -6 -71 -13 -197 -16 -280 -3 -82 -10 -154
-15 -160 -13 -13 -12 -412 1 -420 6 -3 10 -16 10 -29 0 -24 49 -75 90 -93 67
-31 112 -37 255 -38 148 0 207 4 335 25 36 6 90 15 120 19 30 5 82 14 115 21
33 6 76 14 95 17 19 2 44 11 55 18 11 7 38 15 60 18 71 10 111 20 340 90 65
19 143 55 173 79 30 25 47 83 46 156 -1 41 -7 79 -13 85 -6 6 -11 21 -11 34 0
13 -4 23 -8 23 -4 0 -16 20 -26 45 -11 25 -23 45 -28 45 -4 0 -8 8 -8 18 0 10
-5 23 -11 29 -16 16 4 343 22 343 5 0 9 19 9 43 0 37 -4 45 -29 60 -16 9 -41
17 -54 17 -14 0 -29 5 -32 10 -3 6 -15 10 -26 10 -10 0 -19 5 -19 10 0 6 5 10
12 10 7 0 31 7 55 16 76 29 73 -9 73 864 0 443 4 779 9 793 5 13 12 114 16
223 4 109 10 215 14 234 4 19 8 95 10 168 2 73 7 148 12 165 5 18 9 89 9 159
0 74 4 129 10 133 6 3 10 48 10 100 0 51 5 127 10 167 6 40 15 111 20 158 5
47 14 114 20 149 11 72 1 127 -28 152 -31 27 -128 46 -152 29z"/>
<path d="M6505 10781 c-73 -37 -138 -79 -143 -93 -2 -4 -10 -8 -18 -8 -13 0
-36 -16 -73 -50 -9 -8 -29 -21 -44 -29 -15 -8 -27 -18 -27 -23 0 -4 -5 -8 -12
-8 -6 0 -26 -11 -44 -25 -18 -14 -37 -25 -43 -25 -6 0 -11 -4 -11 -8 0 -4 -22
-21 -50 -37 -27 -17 -50 -33 -50 -37 0 -5 -4 -8 -10 -8 -5 0 -34 -16 -64 -35
-30 -19 -60 -35 -66 -35 -5 0 -10 -4 -10 -10 0 -5 -9 -10 -20 -10 -11 0 -20
-4 -20 -10 0 -5 -10 -10 -22 -10 -13 0 -32 -7 -42 -15 -11 -8 -30 -15 -42 -15
-13 0 -26 -4 -29 -10 -9 -14 -151 -12 -175 2 -27 17 -62 -4 -91 -56 -13 -22
-31 -50 -41 -60 -10 -11 -18 -24 -18 -29 0 -5 -16 -31 -35 -57 -19 -26 -35
-53 -35 -59 0 -6 -4 -11 -10 -11 -5 0 -10 -5 -10 -10 0 -9 -47 -87 -60 -100
-5 -5 -14 -20 -58 -99 -14 -25 -28 -48 -31 -51 -3 -3 -13 -18 -21 -35 -8 -16
-25 -41 -37 -55 -13 -14 -23 -30 -23 -37 0 -6 -3 -13 -7 -15 -13 -5 -63 -76
-63 -87 0 -6 -4 -11 -10 -11 -5 0 -10 -6 -10 -14 0 -8 -3 -16 -7 -18 -5 -1
-27 -28 -49 -58 -23 -30 -51 -65 -62 -78 -11 -12 -30 -37 -42 -55 -12 -17 -38
-43 -57 -57 -61 -43 -81 -72 -155 -220 -13 -25 -25 -47 -28 -50 -9 -9 -50 -92
-50 -100 0 -5 -11 -21 -25 -36 -14 -15 -25 -33 -25 -40 0 -8 -4 -14 -10 -14
-5 0 -10 -11 -10 -24 0 -13 -4 -26 -9 -28 -8 -2 -68 -109 -105 -185 -6 -13
-14 -23 -18 -23 -5 0 -8 -7 -8 -15 0 -14 -18 -53 -30 -65 -3 -3 -15 -26 -28
-52 -21 -42 -22 -52 -11 -90 8 -30 9 -102 4 -245 l-7 -202 29 -53 c26 -49 74
-110 116 -147 24 -21 21 -31 -7 -31 -14 0 -28 -4 -31 -10 -3 -5 -15 -10 -26
-10 -10 0 -19 -4 -19 -10 0 -5 -10 -10 -23 -10 -35 0 -53 -30 -63 -106 -13
-99 -10 -1072 3 -1161 12 -80 33 -123 62 -123 18 0 51 29 51 46 0 5 23 34 50
63 28 29 50 50 50 46 0 -7 -46 -71 -69 -95 -16 -17 -41 -73 -41 -94 0 -8 11
-28 25 -44 19 -23 37 -32 78 -38 63 -10 246 -12 249 -2 2 3 41 8 88 11 115 8
267 24 277 30 4 3 37 8 72 11 35 3 73 9 86 12 29 7 188 22 350 33 132 10 172
18 192 42 20 26 53 89 53 104 0 8 5 15 10 15 6 0 10 11 10 24 0 14 5 28 10 31
6 3 10 23 10 44 0 20 4 41 9 46 5 6 15 48 22 95 16 107 24 640 10 695 -6 22
-13 78 -16 124 -6 75 -5 83 9 70 34 -31 46 -39 56 -39 5 0 10 -4 10 -10 0 -5
9 -10 19 -10 11 0 21 -3 23 -8 3 -8 164 -52 218 -59 19 -2 44 -8 55 -13 11 -4
52 -12 90 -17 l70 -8 -3 -170 c-2 -93 -7 -188 -12 -210 -5 -22 -9 -180 -10
-352 l-1 -312 41 -41 c22 -22 49 -40 60 -40 11 0 20 -4 20 -9 0 -11 83 -22
170 -23 79 0 342 31 380 45 15 6 43 11 125 23 22 3 53 12 69 20 16 8 39 14 51
14 12 0 35 4 51 9 16 5 63 16 104 26 41 10 79 22 84 26 6 5 25 9 43 9 17 0 42
4 55 9 39 15 92 30 122 35 16 3 34 10 40 16 5 5 18 10 27 10 28 0 201 60 254
88 65 35 89 63 110 129 16 51 16 57 -1 119 -10 35 -22 64 -26 64 -5 0 -8 7 -8
15 0 8 -4 23 -9 33 -5 9 -21 42 -37 72 -15 30 -31 57 -35 60 -4 3 -10 32 -13
65 -17 178 -21 198 -41 209 -11 6 -22 13 -25 16 -14 14 -46 31 -142 73 -16 6
-28 14 -28 17 0 3 23 11 51 17 28 7 62 23 75 36 l23 23 6 390 c3 214 8 487 11
608 4 165 2 225 -8 247 -7 16 -16 29 -19 29 -4 0 -10 11 -13 25 -4 14 -11 25
-16 25 -6 0 -10 8 -10 18 0 10 -9 28 -20 40 -11 12 -20 25 -20 31 0 14 -34 71
-42 71 -5 0 -8 7 -8 15 0 8 -4 15 -10 15 -5 0 -10 9 -10 20 0 11 -3 20 -8 20
-4 0 -15 18 -25 40 -9 22 -21 40 -27 40 -5 0 -10 9 -10 20 0 11 -4 20 -10 20
-5 0 -10 8 -10 19 0 10 -11 30 -25 45 -14 15 -25 34 -25 42 0 7 -4 14 -10 14
-5 0 -10 7 -10 15 0 8 -16 39 -35 69 -19 30 -35 60 -35 66 0 5 -4 10 -10 10
-5 0 -10 7 -10 15 0 8 -4 15 -10 15 -5 0 -10 9 -10 20 0 11 -3 20 -8 20 -4 0
-16 16 -26 35 -11 19 -23 35 -28 35 -4 0 -8 11 -8 25 0 14 -4 25 -8 25 -5 0
-17 18 -27 40 -10 22 -21 40 -24 40 -3 0 -12 15 -20 33 -8 17 -17 34 -20 37
-14 11 -41 60 -41 74 0 8 -4 16 -9 18 -9 3 -37 48 -67 106 -9 17 -20 32 -25
32 -5 0 -9 9 -9 20 0 11 -4 20 -9 20 -5 0 -12 11 -15 25 -4 14 -11 25 -16 25
-6 0 -10 7 -10 15 0 8 -4 15 -10 15 -5 0 -10 6 -10 13 0 20 -53 116 -62 111
-4 -3 -8 6 -8 20 0 14 -3 26 -8 26 -4 0 -13 15 -21 33 -8 17 -17 34 -20 37 -3
3 -15 23 -26 45 -11 22 -22 42 -25 45 -3 3 -19 32 -35 65 -17 33 -33 62 -37
63 -5 2 -8 12 -8 23 0 10 -4 19 -10 19 -5 0 -10 11 -10 24 0 14 -4 28 -10 31
-5 3 -10 29 -10 56 0 53 -17 103 -46 138 -16 19 -28 21 -109 20 -83 -1 -95 -4
-160 -38z m-499 -1606 c9 -19 20 -35 25 -35 5 0 9 -6 9 -13 0 -16 194 -302
227 -336 8 -7 23 -29 34 -50 11 -20 29 -51 40 -70 20 -33 54 -200 43 -211 -3
-3 -132 -6 -286 -8 -265 -2 -280 -2 -273 15 4 10 10 28 12 41 3 12 9 25 14 28
5 3 9 18 9 35 0 16 4 29 9 29 5 0 12 13 16 30 4 16 11 32 16 35 13 9 11 132
-2 141 -7 4 -9 22 -5 45 3 22 9 57 12 79 3 22 10 43 15 46 5 3 9 27 9 55 0 27
5 49 10 49 6 0 10 13 10 29 0 17 4 32 9 36 5 3 12 19 16 35 4 17 8 30 10 30 2
0 12 -16 21 -35z"/>
<path d="M10770 10810 c-30 -5 -107 -9 -170 -9 -63 -1 -133 -6 -155 -11 -22
-5 -85 -10 -140 -11 -119 -2 -167 -8 -159 -20 3 -5 -37 -9 -90 -9 -52 0 -98
-4 -101 -10 -3 -5 -24 -10 -46 -10 -21 0 -39 -4 -39 -9 0 -5 -25 -11 -55 -13
-42 -4 -59 -10 -75 -29 -11 -13 -24 -29 -30 -36 -5 -7 -10 -17 -10 -23 0 -5
-4 -10 -10 -10 -5 0 -10 -5 -10 -11 0 -7 -10 -22 -22 -34 -30 -30 -68 -78 -68
-87 0 -5 -4 -8 -10 -8 -5 0 -10 23 -10 51 0 60 -13 89 -40 89 -11 0 -20 5 -20
10 0 6 -12 10 -26 10 -14 0 -23 -4 -19 -10 4 -6 -13 -10 -44 -10 -27 0 -53 -4
-56 -10 -3 -5 -15 -10 -26 -10 -10 0 -19 -4 -19 -10 0 -5 -15 -10 -33 -10 -35
0 -125 -26 -141 -41 -6 -5 -18 -9 -28 -9 -10 0 -18 -4 -18 -10 0 -5 -10 -10
-23 -10 -24 0 -130 -48 -135 -62 -2 -4 -15 -8 -28 -8 -13 0 -24 -3 -24 -8 0
-4 -18 -15 -40 -25 -22 -9 -40 -21 -40 -27 0 -5 -9 -10 -20 -10 -11 0 -20 -4
-20 -10 0 -5 -7 -10 -15 -10 -8 0 -15 -4 -15 -10 0 -5 -7 -10 -15 -10 -9 0
-18 -7 -21 -15 -4 -8 -11 -15 -18 -15 -33 -1 -236 -202 -236 -235 0 -8 -4 -15
-10 -15 -5 0 -10 -6 -10 -12 0 -7 -12 -24 -25 -37 -14 -13 -25 -31 -25 -40 0
-9 -18 -37 -40 -61 -37 -40 -58 -78 -100 -175 -18 -41 -24 -253 -10 -345 6
-41 14 -95 17 -120 3 -25 9 -49 14 -54 5 -6 9 -27 9 -48 0 -29 6 -41 25 -54
23 -15 28 -14 97 17 73 33 159 77 231 118 20 11 37 18 37 15 0 -10 -79 -84
-90 -84 -5 0 -10 -4 -10 -10 0 -5 -7 -10 -15 -10 -9 0 -18 -7 -21 -15 -4 -8
-12 -15 -18 -15 -7 0 -21 -8 -32 -17 -10 -10 -44 -30 -74 -45 -69 -35 -83 -55
-68 -100 13 -38 65 -119 85 -131 7 -4 13 -13 13 -20 0 -16 45 -68 144 -169
101 -102 114 -113 229 -192 106 -73 181 -116 202 -116 8 0 15 -4 15 -10 0 -5
8 -10 18 -10 10 0 22 -4 28 -9 14 -14 184 -73 225 -78 51 -7 89 29 89 84 0 21
6 45 13 52 15 15 13 244 -3 249 -6 2 -10 39 -9 90 1 65 3 79 9 57 15 -52 32
-216 36 -352 4 -111 2 -136 -11 -157 -13 -19 -14 -29 -5 -45 13 -25 46 -40
195 -88 61 -19 118 -39 127 -44 10 -5 29 -9 43 -9 14 0 25 -4 25 -9 0 -9 61
-27 128 -38 17 -3 32 -9 32 -14 0 -5 18 -9 41 -9 22 0 38 -4 35 -9 -3 -4 34
-16 82 -26 48 -10 91 -22 97 -26 5 -5 25 -9 45 -9 20 0 40 -4 45 -8 10 -8 122
-29 213 -39 26 -3 54 -9 64 -14 9 -5 48 -9 87 -9 l70 0 70 -67 c120 -116 146
-196 94 -289 -26 -47 -96 -124 -112 -124 -4 0 -16 -8 -27 -17 -10 -10 -32 -25
-49 -33 -16 -8 -38 -21 -47 -29 -10 -8 -18 -11 -18 -7 0 4 -13 -1 -30 -11 -16
-9 -30 -21 -30 -25 0 -4 -13 -8 -28 -8 -15 0 -34 -6 -41 -12 -14 -15 -260 -13
-275 3 -6 5 -36 9 -67 9 -32 0 -61 5 -64 10 -3 6 -17 10 -29 10 -13 0 -37 7
-52 15 -16 8 -41 15 -56 15 -15 0 -30 5 -33 10 -3 6 -19 10 -35 10 -16 0 -32
5 -35 10 -3 6 -15 10 -26 10 -10 0 -19 5 -19 10 0 6 -11 10 -24 10 -14 0 -28
5 -31 10 -3 6 -17 10 -30 10 -12 0 -25 7 -29 15 -3 8 -12 15 -21 15 -8 0 -15
5 -15 10 0 6 -9 10 -20 10 -11 0 -20 4 -20 9 0 5 -10 11 -22 15 -13 3 -37 19
-55 36 -18 16 -34 30 -37 30 -5 0 -54 42 -69 59 -5 5 -24 26 -43 46 -19 20
-34 41 -34 46 0 5 -4 9 -9 9 -5 0 -16 16 -25 35 -9 19 -21 35 -26 35 -6 0 -10
8 -10 18 0 9 -9 28 -20 42 -11 14 -20 31 -20 38 0 6 -7 12 -15 12 -8 0 -15 3
-15 8 0 36 -173 59 -200 27 -7 -8 -16 -15 -21 -15 -9 0 -39 -23 -63 -47 -156
-158 -168 -174 -164 -208 4 -35 4 -35 -38 -35 -33 0 -45 -5 -60 -26 -10 -15
-30 -36 -42 -48 -13 -12 -74 -69 -135 -129 -62 -59 -142 -137 -180 -173 -85
-82 -115 -127 -123 -186 -9 -64 25 -135 102 -212 30 -30 73 -66 79 -66 3 0 14
-8 25 -17 10 -10 36 -27 57 -38 21 -11 40 -23 43 -26 5 -6 33 -14 90 -25 18
-4 40 4 78 30 29 19 52 31 52 26 0 -5 -4 -12 -10 -15 -18 -11 -11 -84 10 -108
68 -76 181 -188 215 -213 22 -16 42 -31 45 -34 3 -3 23 -14 45 -25 22 -11 42
-23 43 -27 2 -5 12 -8 22 -8 10 0 22 -4 25 -10 3 -5 15 -10 25 -10 10 0 20 -4
22 -10 4 -13 109 -37 196 -45 l73 -6 35 36 c19 20 34 45 34 56 0 11 4 27 9 37
12 21 57 120 67 147 7 16 9 13 12 -18 2 -22 -3 -48 -11 -60 -8 -12 -17 -46
-20 -75 -10 -86 18 -131 81 -132 18 0 40 -4 50 -9 35 -19 158 -61 179 -61 12
0 25 -4 28 -10 3 -5 33 -10 66 -10 32 0 59 -3 59 -8 0 -11 366 -7 500 6 114
10 223 27 238 35 4 3 28 8 55 11 26 4 59 11 73 16 14 6 39 10 55 10 16 0 29 5
29 10 0 6 8 10 18 10 9 0 42 9 72 20 30 11 62 20 72 20 9 0 23 7 32 15 8 8 22
15 31 15 9 0 49 15 88 34 83 39 132 56 159 56 49 0 246 97 318 157 99 81 260
256 260 282 0 6 5 11 10 11 6 0 10 5 10 11 0 6 11 25 25 43 14 18 25 38 25 44
0 7 5 12 10 12 6 0 10 9 10 20 0 11 4 20 8 20 18 0 172 350 172 390 0 8 11 38
25 65 13 28 25 63 25 78 0 16 5 38 12 50 14 27 13 236 -2 251 -5 5 -10 28 -10
50 0 42 -13 93 -36 139 -8 16 -14 36 -14 45 0 49 -121 328 -161 371 -10 11
-19 24 -19 28 0 8 -30 45 -76 95 -44 48 -82 62 -189 68 -71 4 -94 8 -80 14 11
5 32 23 47 39 21 23 25 34 18 47 -11 21 -98 80 -117 80 -7 0 -13 5 -13 10 0 6
-7 10 -15 10 -8 0 -34 11 -59 25 -25 14 -54 25 -65 25 -12 0 -21 5 -21 10 0 6
-13 10 -29 10 -17 0 -33 5 -36 10 -3 6 -24 10 -45 10 -21 0 -41 4 -44 9 -3 5
-30 12 -61 16 -30 3 -57 11 -60 16 -4 5 -35 9 -70 9 -35 0 -67 5 -70 10 -4 6
-110 10 -286 10 -179 0 -279 4 -279 10 0 6 -40 10 -99 10 -75 0 -100 3 -104
14 -3 8 -26 17 -51 20 -25 3 -66 9 -91 12 -25 3 -45 10 -45 15 0 5 -18 9 -40
9 -22 0 -40 4 -40 9 0 6 -26 18 -57 28 -32 10 -59 21 -61 25 -2 5 -11 8 -20 8
-9 0 -28 9 -42 20 -14 11 -33 20 -42 20 -9 0 -21 6 -25 13 -4 6 -21 19 -36 27
-16 8 -56 40 -89 73 l-60 58 6 47 c12 95 18 122 27 122 5 0 9 6 9 13 1 16 29
48 62 69 54 35 99 58 113 58 9 0 23 4 33 9 25 14 177 57 249 71 36 8 91 10
135 6 40 -3 120 -9 178 -12 58 -4 110 -9 115 -13 6 -4 28 -9 50 -10 22 -2 87
-12 145 -23 58 -11 123 -22 145 -24 22 -3 56 -9 75 -14 19 -5 49 -11 65 -14
17 -2 62 -12 100 -21 39 -8 90 -20 115 -26 25 -6 62 -13 83 -16 20 -3 40 -9
43 -14 3 -5 25 -9 50 -9 24 0 44 -4 44 -9 0 -14 68 -23 89 -11 21 10 71 101
71 126 0 8 5 14 10 14 6 0 10 9 10 20 0 11 4 28 9 38 20 36 126 268 141 307
13 34 42 97 71 159 16 33 29 63 29 68 0 19 69 162 90 187 27 31 50 82 50 109
0 47 -100 171 -137 172 -7 0 -13 5 -13 10 0 6 -16 10 -36 10 -19 0 -33 4 -30
9 7 10 -27 21 -66 21 -15 0 -30 5 -33 10 -3 6 -19 10 -35 10 -16 0 -32 5 -35
10 -3 6 -35 10 -70 10 -39 0 -65 4 -67 12 -3 7 -36 13 -89 15 -46 2 -111 8
-144 13 -33 4 -94 9 -136 10 -43 0 -103 5 -135 10 -67 11 -212 11 -294 0z"/>
<path d="M14820 10794 c-25 -13 -50 -28 -57 -34 -7 -5 -19 -10 -28 -10 -8 0
-15 -4 -15 -8 0 -5 -16 -17 -35 -28 -19 -10 -35 -22 -35 -26 0 -5 -7 -8 -15
-8 -8 0 -15 -4 -15 -10 0 -5 -7 -10 -15 -10 -8 0 -15 -4 -15 -9 0 -5 -9 -13
-20 -16 -11 -4 -18 -11 -15 -16 4 -5 -3 -9 -14 -9 -12 0 -21 -4 -21 -9 0 -5
-12 -15 -27 -22 -48 -24 -203 -132 -203 -141 0 -4 -9 -8 -20 -8 -11 0 -20 -4
-20 -10 0 -5 -7 -10 -15 -10 -8 0 -15 -4 -15 -10 0 -5 -9 -10 -19 -10 -10 0
-21 -7 -25 -15 -3 -8 -15 -15 -26 -15 -11 0 -20 -4 -20 -10 0 -5 -9 -10 -20
-10 -11 0 -20 -4 -20 -10 0 -5 -11 -10 -25 -10 -14 0 -25 -4 -25 -10 0 -5 -18
-13 -40 -16 -22 -4 -43 -11 -46 -15 -8 -13 -133 -11 -172 3 -32 12 -35 11 -54
-12 -10 -14 -25 -32 -32 -41 -7 -9 -26 -39 -41 -67 -16 -29 -32 -52 -37 -52
-4 0 -8 -9 -8 -20 0 -11 -4 -20 -8 -20 -5 0 -17 -16 -28 -35 -10 -19 -22 -35
-26 -35 -5 0 -8 -8 -8 -18 0 -10 -8 -27 -17 -38 -26 -28 -73 -102 -73 -114 0
-5 -4 -10 -10 -10 -5 0 -12 -11 -16 -25 -3 -14 -10 -25 -15 -25 -5 0 -9 -9 -9
-20 0 -11 -3 -20 -7 -20 -5 0 -21 -21 -38 -48 -16 -26 -38 -56 -47 -66 -10
-11 -18 -26 -18 -33 0 -7 -4 -13 -10 -13 -5 0 -10 -5 -10 -10 0 -6 -11 -23
-25 -38 -14 -15 -25 -32 -25 -39 0 -7 -3 -13 -7 -13 -5 0 -21 -20 -38 -45 -16
-24 -33 -45 -37 -45 -5 0 -8 -6 -8 -14 0 -20 -144 -166 -164 -166 -9 0 -16 -8
-16 -20 0 -11 -4 -20 -9 -20 -5 0 -11 -8 -15 -17 -3 -10 -14 -31 -25 -48 -11
-16 -20 -38 -20 -47 -1 -10 -4 -18 -9 -18 -4 0 -12 -9 -17 -19 -59 -113 -80
-153 -105 -191 -16 -25 -29 -51 -29 -57 -1 -7 -5 -13 -11 -13 -5 0 -10 -6 -10
-14 0 -17 -17 -51 -47 -93 -13 -17 -23 -38 -23 -47 0 -9 -4 -16 -10 -16 -5 0
-10 -9 -10 -20 0 -11 -3 -20 -8 -20 -7 0 -19 -22 -53 -95 -8 -16 -17 -32 -20
-35 -13 -11 -39 -70 -39 -89 0 -11 5 -23 10 -26 6 -4 10 -98 10 -250 0 -181 3
-247 13 -257 6 -7 18 -25 26 -39 7 -15 35 -49 62 -77 27 -28 49 -53 49 -56 0
-3 -11 -6 -24 -6 -14 0 -28 -4 -31 -10 -3 -5 -15 -10 -26 -10 -10 0 -19 -4
-19 -10 0 -5 -13 -10 -29 -10 -46 0 -58 -55 -60 -265 -1 -96 -6 -189 -12 -207
-12 -43 -12 -517 1 -571 5 -23 12 -82 14 -132 6 -101 18 -184 29 -203 5 -6 19
-12 32 -12 19 0 33 14 61 57 39 61 97 119 102 103 2 -6 -13 -25 -32 -44 -20
-18 -36 -38 -36 -44 0 -6 -3 -12 -7 -14 -15 -6 -43 -66 -43 -92 0 -28 45 -76
71 -76 8 0 19 -3 22 -6 11 -11 76 -12 197 -3 63 5 142 11 175 13 71 6 216 23
253 30 15 3 52 8 82 12 30 3 71 8 90 11 82 12 203 24 320 32 170 12 187 18
233 87 20 31 37 64 37 73 0 10 4 21 9 26 4 6 16 44 26 85 9 41 21 91 26 110
11 40 6 804 -6 863 -9 44 -2 45 47 12 20 -14 44 -25 52 -25 9 0 16 -4 16 -9 0
-8 64 -26 138 -38 18 -3 35 -9 38 -14 3 -5 25 -9 50 -9 24 0 44 -5 44 -10 0
-6 6 -10 13 -8 6 1 45 -1 85 -6 l74 -7 -6 -72 c-4 -40 -9 -200 -12 -357 -3
-156 -10 -292 -15 -302 -13 -23 -12 -258 1 -258 6 0 10 -18 10 -40 0 -33 6
-46 33 -70 17 -16 39 -30 48 -30 8 0 19 -4 25 -9 13 -13 89 -23 169 -22 109 0
229 12 239 22 6 5 28 9 49 9 22 0 56 4 76 10 20 5 74 16 120 25 47 9 90 20 95
24 6 5 29 11 51 14 85 12 217 45 229 58 6 5 23 9 39 9 30 0 101 19 257 67 241
75 293 100 340 165 46 63 42 161 -11 260 -5 10 -9 25 -9 33 0 8 -4 15 -10 15
-5 0 -10 9 -10 20 0 11 -4 20 -9 20 -5 0 -11 8 -14 18 -3 9 -15 44 -26 76 -12
33 -21 80 -22 105 0 25 -6 67 -12 94 -13 52 -22 59 -149 120 -37 17 -68 35
-68 38 0 3 23 11 50 18 89 23 92 28 100 187 5 76 10 359 12 628 2 385 0 490
-9 493 -7 3 -13 11 -13 19 0 8 -11 32 -25 52 -14 20 -25 42 -25 49 0 7 -4 13
-8 13 -5 0 -14 16 -22 35 -8 19 -17 35 -22 35 -4 0 -8 6 -8 14 0 8 -6 21 -14
28 -7 8 -16 24 -20 36 -4 12 -13 28 -19 35 -13 13 -32 47 -69 118 -13 24 -25
46 -28 49 -3 3 -14 22 -25 43 -11 20 -23 37 -27 37 -5 0 -8 9 -8 20 0 11 -3
20 -8 20 -4 0 -16 19 -27 41 -32 67 -39 79 -47 79 -5 0 -8 7 -8 15 0 8 -3 15
-7 15 -5 0 -17 18 -27 40 -10 22 -27 48 -37 59 -11 11 -19 26 -20 33 0 7 -13
33 -29 58 -16 25 -41 68 -55 97 -15 29 -33 57 -41 64 -8 6 -14 17 -14 24 0 8
-3 15 -7 17 -10 4 -41 54 -56 91 -6 15 -15 27 -19 27 -4 0 -8 7 -8 15 0 8 -4
15 -8 15 -4 0 -16 20 -26 45 -11 25 -22 45 -26 45 -4 0 -11 11 -14 24 -3 14
-12 31 -19 38 -7 7 -22 30 -32 51 -11 22 -24 47 -30 58 -5 10 -13 19 -17 19
-5 0 -8 9 -8 20 0 11 -4 20 -8 20 -5 0 -15 16 -22 35 -8 20 -20 41 -27 47 -7
6 -13 18 -13 27 0 10 -9 27 -20 39 -11 12 -20 25 -20 31 0 5 -15 35 -33 68
-45 81 -57 121 -57 185 0 49 -4 59 -32 87 -31 30 -34 31 -122 30 -74 -1 -99
-6 -136 -25z m-504 -1640 c16 -30 37 -64 47 -74 9 -11 17 -26 17 -34 0 -8 4
-16 8 -18 4 -1 37 -43 72 -93 35 -49 67 -92 70 -95 13 -11 100 -150 100 -160
0 -5 5 -10 10 -10 6 0 10 -9 10 -19 0 -11 4 -22 9 -25 4 -3 11 -35 13 -71 3
-36 11 -71 17 -79 16 -19 -72 -26 -341 -25 l-218 0 0 24 c0 13 5 27 10 30 6 3
10 17 10 30 0 13 4 26 9 29 5 4 17 32 26 64 9 31 21 68 26 81 7 16 6 28 -2 37
-14 17 -16 179 -2 196 6 7 13 27 16 43 14 74 52 225 58 225 3 0 19 -25 35 -56z"/>
<path d="M12275 5700 c-3 -5 -15 -10 -26 -10 -11 0 -22 -7 -25 -15 -5 -12 -26
-15 -101 -15 -58 0 -92 4 -88 10 3 5 -6 12 -20 15 -14 3 -36 7 -50 10 -30 7
-107 -14 -99 -26 3 -5 -76 -9 -175 -9 -114 0 -181 -4 -181 -10 0 -5 -13 -10
-30 -10 -25 0 -30 -4 -30 -24 0 -13 -6 -26 -12 -28 -21 -7 -24 -239 -4 -279
13 -26 16 -67 16 -201 0 -110 3 -167 10 -163 6 4 10 -17 10 -55 0 -38 -4 -59
-10 -55 -6 4 -10 -23 -10 -74 l0 -81 -152 0 c-143 0 -150 1 -136 18 28 34 38
74 38 162 0 48 4 90 9 92 17 6 31 355 19 485 -6 68 -15 123 -20 123 -4 0 -8 9
-8 20 0 24 -29 60 -48 60 -16 0 -42 -24 -42 -39 0 -17 -8 -13 -38 14 l-27 25
-382 0 -381 0 -32 -31 -31 -32 6 -246 c3 -135 8 -390 10 -565 4 -265 8 -322
20 -336 8 -9 15 -20 15 -24 0 -4 9 -17 20 -29 l21 -22 -21 -9 c-11 -5 -20 -13
-20 -18 0 -4 -9 -8 -20 -8 -12 0 -22 -9 -25 -22 -8 -34 1 -1106 10 -1153 9
-47 23 -68 42 -61 7 3 13 -1 13 -10 0 -39 23 -44 187 -44 88 0 163 4 169 9 5
5 52 11 104 15 195 11 290 24 315 40 34 22 65 74 65 108 0 15 4 29 9 32 22 14
33 212 29 525 l-3 321 30 -6 c17 -4 32 -10 35 -14 7 -10 62 -20 148 -27 l72
-5 0 -118 c0 -86 -3 -119 -12 -122 -10 -4 -14 -80 -16 -325 -3 -279 -1 -323
12 -336 9 -9 16 -18 16 -22 0 -13 29 -35 45 -35 9 0 26 -5 38 -12 16 -8 48 -8
132 2 60 7 117 16 125 20 8 5 35 9 60 11 25 1 59 8 75 15 17 7 57 18 90 24 33
6 68 16 77 21 10 5 29 9 43 9 14 0 39 7 55 15 17 9 30 13 30 10 0 -3 16 2 36
10 20 8 45 15 55 15 11 0 19 5 19 10 0 6 11 10 23 10 14 0 40 15 60 35 34 33
37 40 37 95 0 44 -7 71 -27 112 -15 29 -31 55 -35 56 -5 2 -8 21 -8 42 0 21
-4 42 -10 45 -5 3 -10 21 -10 39 0 38 -34 76 -71 77 -24 0 -24 0 -2 11 50 24
52 40 58 523 3 248 11 533 16 635 6 102 12 265 15 363 3 102 9 177 14 177 6 0
10 20 10 45 0 25 5 64 12 89 13 51 -1 101 -33 111 -10 4 -19 11 -19 16 0 12
-77 12 -85 -1z"/>
<path d="M15635 5700 c-3 -5 -15 -10 -26 -10 -11 0 -22 -7 -25 -15 -5 -12 -26
-15 -101 -15 -55 0 -92 4 -88 9 8 14 -25 22 -95 24 -49 1 -65 -2 -75 -16 -11
-15 -33 -17 -182 -17 -93 0 -173 -4 -179 -9 -5 -5 -20 -11 -34 -13 -46 -6 -51
-34 -47 -272 2 -158 7 -221 15 -224 17 -5 17 -363 0 -380 -9 -9 -9 -15 0 -24
7 -7 12 -22 12 -35 0 -23 0 -23 -147 -23 -114 0 -144 3 -135 12 7 7 12 26 12
43 0 17 6 37 13 44 7 7 13 42 14 84 1 40 7 113 13 162 17 132 9 508 -13 557
-25 58 -97 79 -97 28 0 -26 -5 -25 -38 5 l-27 25 -386 0 c-434 0 -412 4 -444
-77 -14 -34 -16 -65 -11 -170 3 -70 11 -173 17 -228 9 -83 16 -346 12 -420 -1
-11 2 -89 5 -174 5 -110 11 -156 20 -159 6 -2 12 -10 12 -18 0 -7 8 -19 19
-25 17 -11 15 -14 -23 -34 l-41 -22 -8 -104 c-10 -130 -9 -680 1 -896 4 -107
11 -166 20 -175 6 -6 12 -20 12 -30 0 -10 4 -18 9 -18 6 0 18 -13 28 -30 l17
-30 166 0 c91 0 170 4 176 9 5 5 52 12 104 15 157 9 274 23 300 34 40 18 60
38 60 59 0 10 5 24 11 30 19 19 39 117 39 194 0 41 5 80 11 86 10 10 6 398 -6
556 -6 74 -6 78 12 69 57 -30 145 -52 206 -52 l42 0 -4 -448 -3 -448 25 -30
c32 -37 114 -60 179 -50 24 4 70 10 103 14 33 4 65 10 70 14 6 3 30 7 55 9 25
1 55 8 67 16 12 7 31 13 42 13 11 0 46 7 78 16 32 9 77 20 101 25 24 5 48 11
53 14 5 4 17 8 26 10 25 5 85 26 105 36 10 5 24 9 32 9 8 0 33 17 55 38 38 35
41 42 41 90 0 29 -4 52 -10 52 -5 0 -10 13 -10 29 0 16 -6 34 -13 40 -8 6 -19
29 -26 51 -6 22 -16 40 -21 40 -6 0 -10 25 -10 55 0 30 -3 55 -8 55 -4 0 -12
10 -17 22 -6 14 -22 26 -40 29 -16 4 -24 7 -17 8 7 0 24 13 37 27 l25 27 0
523 c0 338 4 525 10 529 6 4 10 79 10 194 0 108 4 191 10 197 5 5 12 50 15 99
4 50 11 128 16 175 14 132 12 146 -18 175 -29 26 -95 35 -108 15z"/>
<path d="M17206 5675 c-8 -8 -28 -15 -45 -15 -17 0 -31 -4 -31 -9 0 -5 -8 -12
-18 -15 -10 -4 -27 -14 -38 -24 -10 -9 -31 -23 -46 -31 -15 -8 -36 -21 -45
-30 -25 -22 -131 -91 -140 -91 -5 0 -20 -11 -35 -25 -15 -14 -37 -25 -48 -25
-12 0 -18 -4 -15 -10 4 -6 -26 -10 -82 -10 -83 -1 -123 -12 -123 -35 0 -5 -11
-23 -25 -41 -14 -18 -25 -39 -25 -46 0 -8 -9 -20 -20 -28 -11 -8 -20 -23 -20
-33 0 -9 -7 -20 -15 -23 -8 -4 -15 -15 -15 -25 0 -10 -4 -19 -10 -19 -5 0 -10
-7 -10 -15 0 -8 -4 -15 -10 -15 -5 0 -10 -7 -10 -14 0 -8 -11 -27 -25 -42 -14
-15 -25 -32 -25 -38 0 -6 -9 -18 -20 -26 -11 -8 -20 -20 -20 -27 0 -7 -16 -30
-35 -52 -19 -21 -35 -44 -35 -50 0 -6 -4 -11 -10 -11 -5 0 -10 -7 -10 -15 0
-8 -3 -15 -7 -15 -13 0 -63 -47 -63 -59 0 -6 -4 -11 -9 -11 -11 0 -41 -56 -41
-76 0 -7 -3 -14 -7 -16 -10 -4 -37 -49 -65 -108 -12 -25 -26 -46 -30 -48 -4
-2 -8 -12 -8 -22 0 -10 -3 -20 -7 -22 -10 -4 -52 -76 -60 -100 -3 -10 -9 -18
-14 -18 -5 0 -9 -20 -9 -45 0 -25 5 -45 10 -45 6 0 10 -25 10 -55 0 -30 -4
-55 -10 -55 -6 0 -10 -30 -10 -70 0 -40 4 -70 10 -70 6 0 10 -7 10 -16 0 -8
11 -30 25 -48 31 -41 31 -46 2 -46 -13 0 -34 -9 -47 -20 l-23 -20 -1 -344 c-1
-245 2 -347 11 -357 6 -8 13 -25 15 -39 2 -17 9 -25 21 -24 9 1 17 -2 17 -6 0
-4 9 -17 19 -29 19 -21 24 -22 183 -17 89 3 206 9 258 15 52 5 140 14 195 19
102 9 165 31 165 56 0 8 7 16 15 20 8 3 15 16 15 30 0 14 5 28 10 31 6 3 10
19 10 35 0 16 5 32 10 35 6 4 10 99 10 253 0 191 3 243 12 234 7 -7 20 -12 30
-12 10 0 18 -4 18 -10 0 -5 20 -10 45 -10 25 0 45 -5 45 -10 0 -6 3 -9 8 -9 4
1 31 1 60 0 l52 -1 0 -140 c0 -87 -4 -140 -10 -140 -6 0 -10 -57 -10 -151 l0
-150 28 -29 c38 -40 129 -59 210 -42 32 7 74 12 93 12 19 0 39 4 44 9 6 5 33
11 60 14 28 2 61 9 75 14 14 6 52 16 85 23 33 6 68 16 77 21 10 5 29 9 43 9
14 0 39 7 55 15 17 9 30 13 30 11 0 -6 98 29 107 37 3 4 15 7 26 7 31 0 86 47
95 82 10 40 -1 131 -16 136 -7 2 -12 15 -12 28 0 13 -3 24 -8 24 -13 0 -30 54
-34 111 -5 62 -15 77 -71 104 l-38 18 30 18 30 18 5 238 c3 131 8 282 11 336
5 70 3 106 -7 127 -7 17 -16 30 -20 30 -5 0 -8 9 -8 20 0 11 -7 23 -15 26 -8
4 -15 14 -15 23 0 10 -9 27 -20 39 -11 12 -20 26 -20 32 0 6 -11 28 -25 50
-14 22 -25 44 -25 50 0 5 -4 10 -10 10 -5 0 -10 9 -10 20 0 11 -4 20 -10 20
-5 0 -10 7 -10 15 0 8 -4 15 -10 15 -5 0 -10 6 -10 14 0 7 -7 19 -15 26 -8 7
-15 21 -15 31 0 11 -4 19 -10 19 -5 0 -10 5 -10 10 0 9 -47 87 -60 100 -3 3
-12 19 -20 35 -8 17 -17 32 -20 35 -8 8 -28 41 -46 78 -9 17 -20 32 -25 32 -5
0 -9 6 -9 14 0 16 -51 110 -62 114 -4 2 -8 11 -8 20 0 10 -9 28 -20 42 -11 14
-20 31 -20 38 0 7 -7 15 -15 18 -8 4 -15 17 -15 30 0 13 -3 24 -7 24 -14 0
-33 53 -33 88 0 37 -15 72 -31 72 -6 0 -17 7 -25 15 -9 8 -31 15 -49 15 -18 0
-40 -7 -49 -15z m-306 -955 c0 -12 91 -144 128 -185 6 -7 12 -18 12 -24 0 -6
4 -11 9 -11 13 0 23 -27 31 -82 l6 -48 -138 0 c-131 0 -138 1 -138 20 0 11 4
20 8 20 5 0 16 27 26 61 14 45 16 63 7 72 -14 14 -15 64 -1 72 6 3 10 16 10
27 0 28 22 88 32 88 4 0 8 -4 8 -10z"/>
<path d="M19236 5675 c-11 -12 -43 -15 -150 -15 -79 0 -137 -4 -141 -10 -3 -5
-46 -10 -95 -10 -49 0 -92 -4 -95 -10 -3 -5 -26 -10 -50 -10 -25 0 -50 -6 -59
-15 -10 -11 -36 -15 -90 -15 -44 0 -76 -4 -76 -10 0 -6 -27 -10 -60 -10 -33 0
-60 -4 -60 -10 0 -5 -11 -10 -25 -10 -14 0 -25 -4 -25 -10 0 -5 -11 -10 -25
-10 -37 0 -104 -32 -111 -52 -3 -10 -10 -18 -15 -18 -5 0 -9 -16 -9 -35 0 -19
-4 -35 -10 -35 -6 0 -10 -43 -10 -110 0 -60 4 -110 9 -110 16 0 29 -339 16
-415 -6 -36 -4 -41 19 -51 17 -8 28 -8 35 -1 8 8 11 6 11 -6 0 -11 -8 -17 -24
-17 -23 0 -25 -4 -31 -72 -3 -40 -8 -163 -11 -273 -3 -126 -9 -202 -16 -206
-16 -10 -17 -671 0 -676 8 -3 12 -29 12 -83 0 -43 5 -82 10 -85 6 -3 10 -17
10 -31 0 -13 4 -32 9 -42 4 -9 16 -34 26 -54 10 -21 24 -38 32 -38 7 0 13 -4
13 -9 0 -5 19 -12 43 -16 23 -4 48 -12 55 -18 9 -7 87 -10 221 -10 174 1 213
4 240 18 30 15 34 15 50 1 10 -9 35 -16 57 -16 40 0 94 19 94 32 0 15 60 38
97 38 45 0 178 -24 213 -38 42 -16 225 -15 262 2 46 20 129 36 193 36 30 0 57
5 60 10 3 6 31 10 61 10 30 0 62 4 72 9 9 4 35 16 57 27 115 53 224 157 286
274 13 25 30 51 37 58 6 7 12 20 12 28 0 8 5 23 10 34 6 11 15 29 20 40 6 11
10 33 10 49 0 16 4 31 10 33 16 5 33 97 33 173 0 72 -21 196 -34 205 -4 3 -9
28 -12 55 -10 84 -19 125 -28 125 -5 0 -9 11 -9 24 0 14 -6 31 -12 38 -7 7
-20 27 -28 43 -8 17 -25 40 -38 53 -19 20 -20 25 -8 38 8 8 18 14 22 14 13 0
84 81 84 96 0 8 5 14 10 14 6 0 10 11 10 24 0 13 6 26 13 29 9 3 12 50 12 190
0 135 -3 189 -12 199 -7 6 -13 29 -13 49 0 21 -4 41 -10 44 -5 3 -10 17 -10
31 0 13 -4 24 -10 24 -5 0 -10 8 -10 19 0 10 -7 24 -15 31 -8 7 -15 17 -15 22
0 14 -145 158 -159 158 -6 0 -11 4 -11 8 0 10 -89 78 -126 97 -16 8 -39 23
-51 34 -12 11 -40 26 -62 33 -23 7 -41 16 -41 20 0 10 -60 38 -81 38 -10 0
-21 5 -24 10 -3 6 -38 10 -76 10 -39 0 -68 4 -65 9 11 17 -27 21 -204 21 -145
0 -181 -3 -194 -15z m362 -695 c35 0 45 -4 49 -20 3 -11 9 -20 14 -20 5 0 9
-43 9 -95 0 -57 -4 -95 -10 -95 -5 0 -10 -11 -10 -25 0 -14 -4 -25 -9 -25 -5
0 -11 -9 -14 -20 -3 -11 -12 -20 -21 -20 -9 0 -16 -4 -16 -10 0 -5 -18 -10
-40 -10 -22 0 -40 5 -40 10 0 6 -9 10 -20 10 -11 0 -20 5 -20 10 0 15 -400 13
-450 -2 -22 -7 -40 -16 -40 -20 0 -5 -7 -8 -15 -8 -8 0 -15 -4 -15 -10 0 -5
-4 -10 -10 -10 -6 0 -10 62 -10 168 l0 167 188 2 c114 2 188 7 190 13 2 6 40
10 85 10 55 1 88 5 101 15 16 12 21 12 40 0 11 -8 40 -15 64 -15z m-74 -952
c19 -13 35 -28 36 -33 0 -6 9 -17 20 -25 29 -21 27 -73 -5 -98 -13 -11 -21
-22 -18 -26 3 -3 -3 -6 -15 -6 -12 0 -22 -4 -22 -10 0 -6 -58 -10 -155 -10
-97 0 -155 -4 -155 -10 0 -5 -20 -10 -45 -10 -25 0 -45 5 -45 10 0 6 -11 10
-25 10 -14 0 -25 5 -25 10 0 6 -27 10 -60 10 -33 0 -60 -4 -60 -10 0 -5 -11
-10 -25 -10 -25 0 -25 1 -25 78 l0 77 38 25 c59 40 112 48 339 49 203 1 213 0
247 -21z"/>
<path d="M9000 5650 c0 -6 -36 -10 -89 -10 -50 0 -93 -4 -96 -10 -3 -5 -19
-10 -35 -10 -16 0 -33 -6 -37 -13 -4 -8 -16 -16 -25 -20 -10 -3 -18 -13 -18
-22 0 -8 -4 -15 -9 -15 -5 0 -13 -10 -17 -22 -6 -20 -7 -19 -20 10 -13 31 -14
32 -79 32 -37 0 -65 -4 -65 -10 0 -5 -9 -10 -20 -10 -11 0 -28 -4 -38 -9 -9
-5 -42 -17 -72 -26 -30 -10 -57 -21 -60 -24 -3 -3 -18 -12 -35 -20 -73 -34
-95 -46 -95 -53 0 -5 -7 -8 -15 -8 -8 0 -15 -4 -15 -10 0 -5 -6 -10 -14 -10
-19 0 -146 -126 -146 -145 0 -8 -4 -15 -9 -15 -5 0 -14 -15 -22 -32 -7 -18
-16 -35 -20 -38 -3 -3 -18 -23 -33 -44 -25 -37 -26 -44 -26 -175 0 -144 8
-190 40 -231 15 -20 21 -23 31 -12 7 6 19 12 27 12 11 0 11 -2 0 -13 -7 -7
-21 -16 -30 -20 -10 -3 -18 -11 -18 -17 0 -20 29 -80 57 -117 33 -47 135 -152
146 -153 4 0 22 -13 40 -30 18 -16 35 -30 39 -30 4 0 13 -6 20 -13 16 -16 110
-60 163 -77 22 -7 44 -16 49 -21 14 -12 63 -11 71 2 4 6 16 0 29 -15 12 -15
27 -26 34 -26 7 0 32 -9 54 -20 23 -11 54 -20 69 -20 15 0 29 -3 31 -7 5 -12
169 -64 199 -63 14 0 29 -3 33 -7 12 -12 99 -32 141 -33 23 0 45 -4 50 -9 6
-5 36 -11 68 -14 39 -3 65 -10 80 -24 82 -74 93 -130 34 -187 -19 -19 -45 -37
-56 -41 -12 -3 -21 -10 -21 -14 0 -4 -16 -13 -35 -21 -19 -8 -35 -17 -35 -22
0 -4 -56 -8 -125 -8 -77 0 -125 4 -125 10 0 6 -16 10 -35 10 -19 0 -35 5 -35
10 0 6 -16 10 -35 10 -19 0 -35 4 -35 10 0 5 -12 13 -27 17 -16 3 -48 18 -73
32 -25 15 -57 33 -72 40 -16 8 -28 18 -28 22 0 11 -49 59 -60 59 -6 0 -10 9
-10 20 0 11 -4 20 -10 20 -5 0 -10 7 -10 15 0 8 -4 15 -10 15 -5 0 -10 6 -10
13 0 19 -43 57 -63 57 -9 0 -17 5 -17 10 0 6 -11 10 -25 10 -14 0 -25 -4 -25
-10 0 -5 -9 -10 -21 -10 -25 0 -149 -119 -149 -143 0 -9 -7 -17 -16 -17 -8 0
-78 -62 -155 -139 l-139 -139 0 -60 c0 -62 16 -94 67 -135 13 -10 30 -25 37
-33 8 -8 21 -14 29 -14 8 0 20 -7 27 -15 8 -10 30 -15 61 -15 40 0 49 -3 49
-17 0 -21 141 -157 181 -175 16 -7 29 -16 29 -20 0 -5 8 -8 18 -8 10 0 23 -5
30 -12 17 -17 141 -28 169 -15 13 5 23 18 23 29 0 27 12 22 39 -17 17 -26 31
-35 52 -35 15 0 31 -4 34 -10 3 -5 19 -10 34 -10 15 0 32 -5 37 -10 14 -14
445 -7 529 8 104 19 125 24 131 33 3 5 14 9 24 9 17 0 100 33 152 61 10 5 28
9 40 9 63 0 288 153 288 196 0 8 7 14 15 14 8 0 15 6 15 13 0 7 9 23 20 35 11
12 20 28 20 36 0 7 7 16 15 20 8 3 15 13 15 23 0 10 9 29 20 43 11 14 20 35
20 46 0 12 7 24 15 28 8 3 15 16 15 30 0 14 5 28 10 31 6 3 10 17 10 31 0 13
5 24 10 24 6 0 10 20 10 45 0 25 5 45 10 45 6 0 10 37 10 90 0 53 -4 90 -10
90 -5 0 -10 25 -10 55 0 30 -4 55 -10 55 -5 0 -10 11 -10 24 0 14 -4 28 -10
31 -5 3 -10 15 -10 25 0 10 -7 25 -15 34 -8 8 -15 22 -15 30 0 9 -4 16 -10 16
-5 0 -10 7 -10 15 0 8 -4 15 -10 15 -5 0 -10 9 -10 20 0 11 -7 20 -15 20 -8 0
-15 7 -15 15 0 27 -38 55 -75 55 -19 0 -35 5 -35 10 0 6 -7 10 -16 10 -8 0
-12 5 -9 11 13 20 -4 59 -26 59 -11 0 -17 4 -14 10 3 5 -6 12 -20 16 -14 3
-25 10 -25 15 0 5 -11 9 -24 9 -14 0 -28 5 -31 10 -3 6 -13 10 -21 10 -9 0
-22 7 -30 15 -9 9 -34 15 -59 15 -24 0 -47 5 -50 10 -4 6 -85 10 -210 10 -125
0 -206 4 -210 10 -3 6 -28 10 -56 10 -27 0 -49 5 -49 10 0 6 -10 10 -22 10
-43 0 -143 25 -151 37 -4 7 -17 13 -27 13 -11 0 -20 5 -20 10 0 6 -9 10 -20
10 -12 0 -32 10 -45 23 -40 37 -54 47 -65 47 -17 0 -11 83 9 113 21 32 73 67
99 67 10 0 22 4 28 8 25 23 126 35 236 28 62 -5 135 -9 162 -10 28 -2 52 -8
54 -14 2 -8 28 -12 68 -12 35 0 64 -4 64 -9 0 -5 17 -11 38 -15 20 -3 62 -9
92 -14 30 -4 65 -13 77 -20 31 -17 133 -16 133 2 0 7 7 19 15 26 8 7 15 21 15
31 0 11 5 19 10 19 6 0 10 11 10 25 0 14 5 25 10 25 6 0 10 14 10 30 0 17 5
30 10 30 6 0 15 12 21 28 6 15 17 40 25 56 8 16 14 40 14 53 0 12 5 23 10 23
6 0 10 7 10 15 0 8 5 15 10 15 6 0 10 16 10 35 0 22 4 34 12 32 7 -1 14 8 16
21 2 12 8 22 13 22 5 0 9 7 9 15 0 8 5 15 10 15 14 0 12 79 -2 94 -7 8 -20 23
-28 35 -8 12 -25 21 -41 21 -15 0 -29 7 -33 15 -3 8 -16 15 -30 15 -14 0 -28
5 -31 10 -3 6 -33 10 -65 10 -32 0 -62 5 -65 10 -4 6 -138 10 -371 10 -236 0
-364 -4 -364 -10z"/>
<path d="M12930 5650 c0 -6 -69 -10 -187 -10 l-187 0 -33 -36 -33 -37 0 -159
c0 -99 4 -167 11 -180 8 -15 13 -146 15 -413 1 -252 7 -414 14 -453 9 -45 10
-69 1 -93 -6 -18 -11 -61 -11 -96 0 -55 3 -68 23 -84 l22 -18 -22 -1 c-13 0
-24 -1 -24 -2 -8 -15 -21 -340 -25 -608 l-5 -336 23 -34 c13 -19 33 -36 43
-38 11 -2 29 -8 41 -13 35 -18 325 14 404 44 8 3 31 8 50 11 19 2 49 9 65 15
62 22 165 51 180 51 8 0 23 4 33 9 40 20 94 41 106 41 7 0 29 17 49 37 33 33
37 42 37 89 0 33 -5 58 -15 68 -8 8 -15 21 -15 28 0 8 -9 33 -20 56 -11 22
-20 50 -20 61 0 11 -4 23 -10 26 -5 3 -10 24 -10 45 0 30 -7 45 -27 65 -15 14
-37 25 -48 25 -17 1 -16 3 6 15 15 8 30 22 34 32 5 10 10 203 11 428 2 226 8
468 14 539 5 72 10 182 10 247 0 64 4 129 10 145 5 16 11 74 14 129 11 213 18
300 27 310 14 14 11 53 -7 80 -15 23 -22 25 -100 25 -49 0 -84 -4 -84 -10 0
-6 -35 -10 -84 -10 -47 0 -88 5 -91 10 -3 6 -46 10 -96 10 -53 0 -89 -4 -89
-10z"/>
</g>
</svg>
