<?xml version="1.0" standalone="no"?>
<!DOCTYPE svg PUBLIC "-//W3C//DTD SVG 20010904//EN"
 "http://www.w3.org/TR/2001/REC-SVG-20010904/DTD/svg10.dtd">
<svg version="1.0" xmlns="http://www.w3.org/2000/svg"
 width="3264.000000pt" height="326.000000pt" viewBox="0 0 3264.000000 326.000000"
 preserveAspectRatio="xMidYMid meet">
<metadata>
Created by potrace 1.16, written by Peter Selinger 2001-2019
</metadata>
<g transform="translate(0.000000,326.000000) scale(0.100000,-0.100000)"
fill="#000000" stroke="none">
<path d="M24800 3080 c-68 -12 -117 -36 -165 -81 -115 -106 -121 -313 -12
-427 121 -126 340 -132 470 -13 123 112 120 331 -5 447 -65 60 -189 92 -288
74z"/>
<path d="M7650 2467 l0 -463 -57 54 c-159 148 -357 222 -592 222 -544 0 -921
-428 -921 -1045 0 -208 40 -382 125 -549 118 -231 279 -376 510 -459 105 -37
208 -51 343 -44 228 11 388 82 535 235 l57 61 0 -135 0 -134 265 0 265 0 0
1360 0 1360 -265 0 -265 0 0 -463z m-429 -657 c200 -37 369 -212 415 -430 20
-94 14 -257 -14 -352 -41 -144 -142 -262 -281 -331 l-84 -42 -121 0 -121 0
-86 42 c-142 70 -244 195 -290 358 -9 32 -14 100 -14 190 0 120 3 149 23 207
88 255 327 404 573 358z"/>
<path d="M22435 2918 c-3 -7 -4 -618 -3 -1358 l3 -1345 262 -3 262 -2 4 627
c3 675 3 667 57 772 32 64 112 144 172 173 168 81 380 56 502 -60 48 -46 76
-90 107 -167 l24 -60 5 -640 5 -640 265 0 265 0 3 620 c4 774 -3 845 -101
1043 -123 250 -342 385 -647 399 -245 11 -454 -58 -602 -201 l-58 -55 0 455 0
454 -260 0 c-199 0 -262 -3 -265 -12z"/>
<path d="M25395 2918 c-3 -7 -4 -618 -3 -1358 l3 -1345 265 0 265 0 5 630 c5
616 6 631 28 696 41 123 134 222 247 265 76 29 249 26 328 -5 74 -29 168 -115
201 -184 56 -114 56 -121 56 -778 0 -502 2 -609 14 -618 9 -8 88 -11 267 -9
l254 3 3 615 c4 771 -4 849 -99 1046 -99 204 -274 338 -504 385 -141 29 -323
23 -445 -16 -119 -38 -209 -87 -285 -157 l-65 -60 0 451 0 451 -265 0 c-203 0
-267 -3 -270 -12z"/>
<path d="M29782 1573 l3 -1358 260 0 260 0 5 130 c5 130 5 130 23 103 23 -34
137 -126 197 -160 158 -89 396 -129 576 -97 485 85 804 537 781 1104 -3 72
-13 166 -22 210 -73 346 -303 623 -605 727 -147 50 -344 64 -490 33 -152 -32
-295 -109 -402 -215 l-58 -58 0 469 0 469 -265 0 -265 0 2 -1357z m1227 210
c141 -56 251 -178 302 -335 21 -62 24 -93 24 -208 0 -85 -5 -154 -14 -185 -23
-84 -83 -186 -148 -256 -106 -112 -212 -154 -372 -147 -81 4 -106 9 -161 35
-91 43 -140 81 -203 161 -96 120 -122 200 -122 382 0 112 4 147 22 205 55 175
228 340 393 375 78 16 201 4 279 -27z"/>
<path d="M21090 2794 c-445 -80 -691 -345 -690 -742 1 -213 74 -371 230 -498
110 -89 251 -149 568 -244 277 -82 354 -119 431 -206 94 -107 81 -289 -29
-388 -54 -49 -107 -72 -195 -86 -129 -21 -255 12 -331 87 -51 49 -94 134 -102
199 l-5 44 -288 0 -289 0 6 -62 c28 -294 215 -525 517 -638 120 -45 208 -61
372 -67 281 -10 476 41 661 172 306 218 398 688 191 977 -121 170 -260 248
-662 372 -283 87 -357 121 -441 198 -58 53 -78 109 -72 195 12 159 111 250
285 261 190 11 342 -87 375 -240 l12 -58 293 0 c273 0 293 1 293 18 -1 9 -7
51 -14 92 -61 337 -310 557 -696 615 -116 18 -319 18 -420 -1z"/>
<path d="M126 2764 c-3 -9 -6 -581 -6 -1273 0 -964 3 -1260 12 -1269 9 -9 83
-12 270 -12 l258 0 0 540 0 540 405 0 405 0 0 210 0 210 -405 0 -405 0 0 320
0 320 525 0 525 0 0 215 0 215 -789 0 c-710 0 -789 -2 -795 -16z"/>
<path d="M9075 2768 c-3 -7 -4 -584 -3 -1283 l3 -1270 265 0 265 0 3 543 2
542 525 0 525 0 2 -542 3 -543 245 -3 c135 -1 255 0 268 3 l22 5 -2 1278 -3
1277 -267 3 -268 2 0 -525 0 -525 -525 0 -525 0 -2 523 -3 522 -263 3 c-205 2
-264 0 -267 -10z"/>
<path d="M4590 2266 c-387 -86 -648 -382 -721 -816 -16 -96 -16 -323 0 -420
48 -286 181 -522 381 -674 340 -260 841 -229 1130 69 l45 46 5 -128 5 -128
265 0 265 0 3 1018 2 1017 -270 0 -270 0 0 -127 0 -126 -63 60 c-109 105 -246
177 -395 209 -82 17 -305 17 -382 0z m433 -461 c192 -50 336 -201 383 -403 21
-91 21 -259 -1 -347 -39 -157 -149 -295 -290 -361 -66 -32 -89 -38 -170 -42
-116 -6 -203 18 -296 81 -343 229 -325 834 30 1021 123 64 231 80 344 51z"/>
<path d="M12060 2266 c-391 -87 -653 -385 -720 -821 -16 -102 -16 -318 -1
-415 44 -271 179 -518 361 -662 345 -274 872 -244 1158 66 l42 46 0 -135 0
-135 265 0 265 0 0 1020 0 1020 -265 0 -265 0 0 -126 0 -126 -67 62 c-113 106
-242 174 -391 206 -82 17 -305 17 -382 0z m475 -475 c141 -50 268 -174 320
-314 49 -133 52 -332 7 -470 -70 -211 -265 -357 -477 -357 -141 0 -251 46
-351 146 -200 202 -228 562 -64 804 67 98 196 186 311 210 66 14 186 5 254
-19z"/>
<path d="M14188 2264 c-90 -16 -223 -66 -303 -115 -32 -19 -85 -64 -120 -101
-102 -108 -155 -236 -155 -380 0 -166 43 -272 154 -375 114 -106 228 -158 506
-228 166 -42 341 -102 392 -134 61 -39 82 -78 76 -147 -6 -69 -40 -114 -115
-151 -53 -26 -67 -28 -168 -28 -99 1 -116 4 -170 28 -80 37 -146 108 -169 182
l-18 55 -270 0 -269 0 6 -48 c24 -173 112 -322 259 -438 135 -108 265 -161
456 -190 133 -19 323 -15 430 11 322 77 518 282 537 560 10 160 -40 298 -147
406 -110 110 -220 161 -540 249 -292 81 -363 113 -405 184 -30 52 -32 94 -5
146 40 79 140 117 285 107 152 -9 249 -81 281 -207 l11 -45 253 -3 253 -2 -7
61 c-30 267 -209 484 -471 574 -129 44 -406 58 -567 29z"/>
<path d="M16040 2266 c-457 -102 -740 -494 -740 -1026 0 -203 37 -374 116
-535 172 -351 491 -544 866 -522 122 7 218 31 319 80 83 40 188 116 236 171
l32 36 3 -127 3 -128 268 -3 267 -2 0 1020 0 1020 -267 -2 -268 -3 -3 -124
c-2 -117 -4 -123 -18 -102 -30 42 -165 141 -247 181 -122 59 -225 80 -382 79
-71 -1 -155 -7 -185 -13z m527 -501 c138 -68 230 -178 279 -333 24 -75 29
-263 10 -352 -42 -200 -179 -357 -359 -412 -54 -16 -87 -20 -162 -16 -85 3
-100 7 -178 46 -141 70 -242 195 -288 357 -9 32 -14 100 -14 190 0 120 3 149
23 207 48 138 147 254 267 314 89 44 140 54 245 49 76 -4 94 -9 177 -50z"/>
<path d="M18640 2273 c-149 -23 -307 -100 -412 -202 l-48 -45 0 112 0 112
-265 0 -265 0 2 -1017 3 -1018 263 -3 262 -2 0 592 c0 358 4 619 10 658 15 89
67 195 125 251 195 191 550 144 673 -88 58 -110 56 -89 62 -773 l5 -635 263
-3 262 -2 0 684 c0 725 -1 740 -48 876 -113 326 -391 513 -757 509 -60 -1
-121 -3 -135 -6z"/>
<path d="M28145 2261 c-162 -44 -260 -95 -368 -191 -230 -205 -339 -471 -338
-831 0 -208 37 -381 115 -539 163 -331 454 -520 802 -520 229 0 420 76 582
233 l72 70 0 -136 0 -137 260 0 260 0 0 1020 0 1020 -260 0 -260 0 0 -132 0
-131 -57 56 c-86 84 -130 115 -218 157 -127 60 -180 72 -360 76 -133 3 -172 0
-230 -15z m437 -452 c317 -68 493 -403 402 -764 -80 -315 -431 -488 -709 -349
-147 74 -240 191 -286 359 -27 100 -30 259 -5 354 72 280 335 456 598 400z"/>
<path d="M1804 2236 c-3 -8 -4 -311 -1 -673 4 -711 4 -712 61 -869 69 -191
214 -352 386 -431 121 -56 185 -68 360 -68 145 0 174 3 240 23 112 35 226 99
297 165 l63 59 0 -116 0 -116 263 2 262 3 3 1018 2 1017 -265 0 -265 0 0 -577
c0 -323 -5 -608 -10 -646 -34 -232 -171 -368 -387 -384 -237 -18 -409 111
-458 344 -12 55 -15 183 -15 666 l0 597 -265 0 c-220 0 -267 -2 -271 -14z"/>
<path d="M24602 1233 l3 -1018 258 -3 257 -2 0 1020 0 1020 -260 0 -260 0 2
-1017z"/>
<path d="M32135 786 c-95 -30 -153 -80 -192 -164 -35 -75 -35 -178 0 -255 53
-116 154 -177 292 -177 164 0 283 90 315 239 15 71 0 177 -32 228 -68 110
-249 171 -383 129z"/>
</g>
</svg>
