<?xml version="1.0" standalone="no"?>
<!DOCTYPE svg PUBLIC "-//W3C//DTD SVG 20010904//EN"
 "http://www.w3.org/TR/2001/REC-SVG-20010904/DTD/svg10.dtd">
<svg version="1.0" xmlns="http://www.w3.org/2000/svg"
 width="5000.000000pt" height="5000.000000pt" viewBox="0 0 5000.000000 5000.000000"
 preserveAspectRatio="xMidYMid meet">

<g transform="translate(0.000000,5000.000000) scale(0.100000,-0.100000)"
fill="#5956e9" stroke="none">
<path d="M24305 49989 c-93 -4 -285 -12 -425 -19 -553 -24 -702 -33 -915 -56
-77 -8 -183 -19 -235 -24 -52 -5 -142 -14 -200 -21 -158 -18 -255 -28 -360
-39 -52 -5 -151 -17 -220 -25 -69 -9 -156 -20 -195 -25 -207 -26 -378 -49
-520 -71 -33 -6 -87 -13 -120 -18 -72 -10 -300 -47 -370 -61 -203 -39 -268
-51 -450 -85 -176 -33 -223 -43 -410 -84 -22 -5 -67 -15 -100 -21 -33 -7 -87
-18 -120 -25 -33 -7 -85 -18 -115 -25 -68 -14 -107 -22 -242 -55 -383 -90
-424 -100 -538 -131 -52 -14 -106 -28 -120 -31 -14 -3 -45 -11 -70 -18 -42
-12 -80 -22 -167 -45 -21 -5 -69 -19 -108 -31 -38 -11 -95 -27 -125 -35 -30
-8 -89 -25 -130 -38 -41 -13 -102 -31 -135 -41 -102 -29 -118 -34 -195 -58
-41 -13 -129 -41 -195 -62 -66 -20 -129 -41 -140 -45 -11 -4 -60 -20 -110 -35
-49 -15 -128 -40 -175 -56 -47 -17 -143 -50 -215 -74 -141 -47 -354 -122 -505
-178 -52 -20 -133 -49 -180 -66 -47 -17 -94 -35 -105 -40 -11 -5 -47 -19 -80
-31 -33 -12 -73 -27 -90 -34 -16 -8 -88 -37 -160 -66 -71 -28 -141 -57 -155
-62 -14 -6 -34 -14 -45 -18 -34 -13 -389 -163 -405 -171 -28 -14 -111 -50
-183 -79 -63 -25 -226 -97 -392 -175 -48 -22 -133 -60 -205 -92 -68 -31 -957
-473 -1075 -536 -132 -70 -250 -133 -307 -165 -21 -12 -68 -38 -105 -58 -37
-20 -72 -40 -78 -44 -5 -4 -37 -22 -70 -40 -118 -65 -536 -310 -618 -363 -31
-20 -59 -37 -61 -37 -9 0 -412 -252 -585 -365 -43 -27 -133 -86 -201 -130 -68
-44 -158 -103 -199 -132 -42 -29 -128 -87 -191 -129 -141 -95 -553 -385 -560
-394 -3 -4 -21 -18 -41 -31 -72 -47 -206 -145 -335 -244 -72 -55 -146 -111
-164 -125 -135 -101 -625 -493 -780 -624 -52 -45 -104 -88 -115 -98 -17 -14
-132 -111 -215 -182 -36 -30 -284 -249 -290 -256 -3 -3 -43 -39 -90 -80 -47
-41 -116 -104 -155 -141 -38 -36 -131 -121 -205 -190 -432 -399 -894 -865
-1360 -1374 -30 -33 -57 -62 -60 -65 -3 -3 -79 -88 -169 -190 -170 -192 -174
-197 -281 -320 -36 -41 -68 -77 -71 -80 -3 -3 -28 -32 -55 -66 -54 -68 -189
-228 -217 -259 -27 -29 -436 -540 -484 -605 -23 -30 -66 -86 -95 -125 -124
-162 -214 -281 -228 -301 -32 -47 -220 -307 -253 -349 -13 -16 -71 -97 -129
-180 -105 -149 -117 -168 -192 -281 -22 -32 -42 -61 -45 -64 -9 -7 -225 -331
-230 -345 -2 -5 -23 -37 -46 -70 -60 -87 -235 -364 -235 -372 0 -3 -6 -14 -14
-22 -8 -9 -23 -32 -34 -51 -16 -29 -146 -242 -182 -300 -27 -42 -130 -222
-130 -227 0 -3 -8 -17 -19 -31 -10 -15 -30 -47 -44 -72 -14 -25 -56 -99 -94
-165 -38 -66 -91 -160 -118 -210 -43 -81 -75 -140 -125 -230 -9 -16 -30 -55
-46 -85 -16 -30 -31 -57 -34 -60 -7 -7 -77 -144 -299 -586 -195 -389 -251
-504 -311 -639 -18 -38 -47 -101 -65 -140 -18 -38 -43 -92 -55 -120 -12 -27
-36 -79 -52 -115 -17 -36 -43 -97 -59 -137 -15 -39 -38 -93 -50 -120 -75 -166
-93 -208 -144 -333 -70 -171 -74 -181 -110 -275 -15 -38 -38 -94 -51 -123 -13
-29 -24 -57 -24 -62 0 -6 -4 -18 -9 -28 -15 -28 -38 -84 -54 -132 -9 -25 -28
-76 -42 -115 -46 -119 -75 -198 -91 -245 -8 -25 -19 -54 -25 -65 -5 -11 -34
-91 -64 -179 -29 -87 -56 -161 -59 -164 -3 -3 -6 -14 -6 -24 0 -10 -5 -26 -10
-36 -6 -9 -23 -57 -40 -107 -16 -49 -38 -115 -48 -145 -11 -30 -32 -95 -47
-145 -15 -49 -31 -99 -35 -110 -4 -11 -20 -60 -35 -110 -15 -49 -38 -121 -51
-160 -22 -68 -42 -133 -91 -305 -13 -47 -35 -120 -49 -162 -13 -43 -24 -86
-24 -97 0 -11 -4 -22 -9 -25 -5 -3 -11 -20 -14 -38 -3 -18 -17 -76 -32 -128
-15 -52 -31 -111 -35 -130 -4 -19 -20 -80 -35 -135 -15 -55 -30 -116 -35 -135
-4 -19 -17 -71 -28 -115 -12 -44 -33 -129 -47 -190 -14 -60 -30 -126 -35 -145
-12 -44 -57 -235 -65 -275 -15 -72 -24 -114 -39 -180 -9 -38 -21 -92 -26 -120
-4 -27 -16 -81 -25 -120 -23 -100 -36 -163 -45 -215 -5 -25 -16 -85 -25 -135
-10 -49 -21 -112 -26 -140 -10 -63 -22 -127 -44 -235 -17 -91 -31 -175 -44
-281 -5 -37 -11 -71 -14 -76 -3 -5 -11 -47 -18 -94 -19 -137 -26 -188 -43
-304 -16 -107 -28 -195 -46 -340 -5 -38 -16 -124 -25 -190 -9 -66 -20 -160
-25 -210 -23 -231 -30 -292 -35 -320 -9 -51 -33 -337 -54 -650 -5 -88 -13
-180 -17 -205 -41 -289 -64 -1895 -36 -2610 14 -379 29 -671 37 -725 3 -22 10
-108 16 -190 21 -298 47 -609 55 -650 6 -31 19 -151 34 -310 5 -49 16 -144 25
-210 9 -66 20 -154 25 -195 22 -180 41 -313 70 -505 5 -33 14 -93 19 -133 6
-40 13 -77 16 -82 3 -5 11 -45 16 -87 20 -153 27 -199 44 -283 19 -94 28 -145
44 -235 6 -33 17 -96 26 -140 8 -44 20 -102 25 -130 15 -83 28 -146 45 -220
16 -71 30 -140 45 -227 5 -27 11 -52 14 -56 3 -5 10 -35 16 -68 16 -85 25
-129 48 -219 39 -153 85 -340 92 -380 4 -22 16 -67 25 -100 10 -33 21 -76 25
-95 10 -44 43 -166 65 -245 9 -33 21 -76 25 -95 25 -102 31 -127 39 -150 5
-14 14 -43 20 -65 5 -22 22 -78 35 -125 22 -75 52 -179 88 -305 15 -56 59
-196 68 -220 4 -11 20 -60 35 -110 62 -203 142 -449 155 -480 5 -11 27 -74 49
-140 53 -159 128 -375 140 -400 9 -20 58 -150 106 -285 15 -41 30 -84 35 -95
4 -11 14 -36 20 -55 7 -19 20 -51 28 -70 21 -52 25 -63 82 -205 59 -149 66
-167 80 -197 5 -13 23 -58 39 -100 17 -42 40 -98 52 -125 32 -71 44 -99 84
-197 20 -49 40 -96 45 -105 4 -9 12 -27 18 -41 16 -39 38 -89 70 -160 16 -36
40 -87 52 -115 12 -27 40 -87 61 -133 22 -45 39 -84 39 -86 0 -17 327 -686
452 -926 30 -58 84 -161 120 -230 36 -69 77 -145 90 -170 42 -76 89 -162 130
-233 21 -38 38 -70 38 -72 0 -1 28 -51 61 -111 34 -60 73 -129 87 -154 13 -25
33 -57 43 -72 11 -14 19 -28 19 -31 0 -3 43 -78 95 -167 52 -89 95 -164 95
-167 0 -3 13 -23 29 -46 15 -23 77 -122 137 -220 60 -98 141 -228 179 -288 39
-61 75 -118 80 -127 6 -10 29 -45 53 -79 23 -34 42 -66 42 -72 0 -5 3 -11 8
-13 6 -2 114 -165 157 -236 6 -10 13 -19 16 -22 3 -3 18 -25 34 -49 15 -25 32
-49 37 -55 24 -29 178 -258 178 -266 0 -4 4 -10 9 -12 4 -2 20 -21 34 -43 23
-36 203 -285 224 -310 5 -5 38 -50 73 -100 35 -49 68 -94 73 -100 4 -5 49 -64
99 -130 172 -228 197 -260 269 -355 40 -52 75 -97 78 -100 3 -3 36 -43 73 -90
155 -195 260 -326 286 -354 15 -17 45 -53 67 -81 22 -27 42 -52 45 -55 3 -3
41 -48 85 -100 44 -52 82 -97 85 -100 3 -3 30 -34 60 -70 30 -36 75 -88 100
-115 25 -28 74 -84 110 -125 36 -40 70 -78 75 -84 6 -6 46 -52 90 -101 44 -50
111 -124 150 -165 39 -41 98 -104 131 -140 354 -388 942 -975 1279 -1280 39
-35 104 -95 145 -134 41 -39 93 -87 115 -105 33 -28 163 -144 209 -186 6 -5
29 -25 51 -44 22 -18 60 -52 85 -75 42 -39 317 -273 399 -340 20 -17 57 -48
82 -70 25 -23 54 -48 65 -56 18 -14 203 -162 234 -187 381 -310 982 -757 1369
-1021 472 -321 1159 -767 1241 -805 8 -4 56 -32 105 -63 50 -31 110 -68 135
-82 25 -14 56 -32 70 -42 14 -9 32 -20 40 -24 8 -4 24 -12 35 -19 53 -33 347
-202 410 -237 33 -18 74 -41 92 -51 18 -10 63 -35 100 -55 37 -20 97 -54 133
-74 36 -21 118 -65 183 -99 64 -34 170 -89 235 -122 236 -124 735 -368 902
-442 19 -8 73 -33 120 -55 47 -22 108 -50 135 -62 28 -12 87 -40 132 -61 46
-22 85 -39 88 -39 4 0 32 -12 63 -26 31 -14 79 -35 107 -46 27 -11 72 -30 100
-43 28 -12 91 -39 140 -60 50 -20 104 -43 120 -50 17 -8 89 -37 160 -65 72
-28 138 -55 147 -61 10 -5 22 -9 28 -9 5 0 33 -11 62 -24 55 -24 156 -64 218
-86 19 -7 49 -18 65 -25 17 -6 46 -18 65 -25 19 -6 44 -16 55 -20 11 -5 65
-25 120 -45 55 -20 120 -45 145 -55 25 -10 102 -37 170 -60 69 -22 134 -45
145 -50 22 -10 466 -157 650 -215 220 -70 260 -82 300 -93 22 -7 78 -23 125
-37 47 -14 101 -30 120 -35 73 -20 146 -42 168 -51 13 -5 34 -9 47 -9 13 0 26
-4 29 -9 3 -4 20 -11 38 -15 18 -3 58 -13 88 -22 30 -8 87 -24 125 -34 39 -10
97 -26 130 -35 33 -9 76 -21 95 -25 19 -4 60 -15 90 -25 58 -17 109 -30 175
-45 22 -5 69 -16 105 -25 60 -15 92 -23 175 -40 17 -4 50 -13 75 -20 25 -7 69
-17 97 -24 29 -6 77 -16 105 -22 29 -6 76 -18 105 -25 28 -8 61 -14 74 -14 12
0 36 -4 53 -10 53 -16 244 -54 393 -78 34 -6 66 -13 71 -16 6 -3 41 -11 78
-17 106 -17 166 -27 199 -34 143 -28 263 -50 365 -65 41 -7 98 -16 125 -22 28
-5 79 -14 115 -19 36 -5 92 -13 125 -19 133 -21 274 -42 345 -50 161 -20 352
-45 463 -60 37 -6 88 -10 114 -10 25 0 73 -4 107 -10 82 -12 312 -38 411 -45
44 -3 132 -10 195 -15 63 -5 176 -13 250 -19 74 -6 187 -15 250 -21 63 -6 151
-12 195 -14 44 -2 211 -10 370 -17 386 -19 1706 -19 2095 -1 459 21 769 42
935 62 44 6 103 10 130 10 28 0 93 4 145 10 52 5 167 16 255 25 88 9 188 20
221 25 34 6 79 10 100 10 37 0 111 8 274 31 74 11 153 21 300 39 68 8 162 22
350 51 36 5 92 14 125 19 33 5 101 16 150 25 50 9 117 20 150 26 143 22 262
44 325 59 19 5 69 14 110 20 41 6 104 18 140 25 36 7 90 18 120 24 63 11 197
38 255 51 22 5 67 14 100 20 61 12 158 33 230 50 22 5 65 14 95 21 30 6 75 17
100 24 25 7 61 16 80 20 40 8 77 17 170 40 36 9 83 20 105 24 22 5 74 18 115
29 173 48 193 53 455 122 39 10 84 23 100 28 17 5 50 15 75 22 83 23 115 32
155 45 22 7 58 17 80 23 22 6 77 23 122 37 45 14 89 25 98 25 8 0 23 4 33 9 9
5 55 20 102 35 173 53 256 79 275 86 11 4 61 20 110 35 50 15 115 36 145 47
30 10 109 37 175 59 66 22 128 44 137 49 10 6 25 10 33 10 8 0 23 4 33 9 9 6
67 26 127 47 61 20 124 42 140 49 17 7 75 30 130 50 55 20 109 40 120 45 11 4
36 14 55 20 19 7 49 19 65 25 17 7 44 17 60 23 30 10 220 85 263 103 12 5 32
13 45 18 12 6 76 31 142 57 130 50 155 61 229 93 27 12 69 31 95 41 25 10 71
29 101 43 31 14 78 34 105 45 28 11 76 32 107 46 31 14 59 26 63 26 3 0 42 17
88 39 45 21 105 49 132 61 182 81 392 180 625 292 201 97 375 185 558 280 65
33 142 73 173 89 56 27 112 58 366 200 18 10 63 35 100 55 37 20 97 54 133 74
36 21 81 47 100 58 19 11 76 43 125 72 50 29 110 64 135 78 25 14 57 33 72 43
14 11 29 19 32 19 3 0 42 23 86 50 44 28 82 50 85 50 3 0 11 5 18 10 7 6 86
56 177 111 91 56 177 110 192 120 15 10 30 19 34 19 3 0 31 17 62 39 53 36
103 68 365 237 56 37 120 79 142 94 22 15 103 70 180 122 284 192 310 210 325
221 8 7 71 52 140 101 335 240 730 538 979 738 75 61 185 149 245 197 59 47
143 115 185 151 42 36 100 85 130 110 29 25 70 59 90 76 20 17 72 62 117 100
85 73 315 274 324 284 3 3 46 41 95 85 439 386 1185 1119 1585 1560 35 39 93
102 129 140 60 63 202 220 396 439 145 163 502 590 650 776 54 69 102 127 105
130 13 11 236 301 464 605 136 180 188 251 302 410 43 61 82 115 86 120 12 15
274 394 334 483 58 86 174 265 174 269 0 2 11 19 24 36 25 33 306 476 306 482
0 2 43 72 95 155 52 83 95 153 95 154 0 2 37 66 81 142 148 251 271 468 317
554 24 47 52 99 62 115 46 80 167 304 293 545 108 207 352 700 420 850 14 30
41 89 60 130 19 41 45 98 57 125 12 28 33 73 45 100 27 59 72 158 90 200 7 17
22 52 34 79 12 27 31 70 41 96 10 26 28 68 39 94 49 109 61 136 101 236 43
108 53 134 69 173 6 12 33 81 61 152 65 162 70 176 81 198 5 9 16 39 25 65 8
26 19 56 24 67 4 11 20 54 35 95 15 41 30 84 35 95 11 29 35 91 61 160 12 33
27 74 34 90 7 17 20 53 28 80 9 28 39 115 68 195 28 80 53 154 56 165 2 11 8
29 13 40 15 35 158 475 200 615 12 41 28 93 35 115 7 22 18 60 25 85 6 25 18
63 25 85 7 22 18 60 25 85 7 25 16 56 21 70 4 14 15 54 24 90 9 36 21 74 25
85 5 11 11 31 14 45 6 29 66 256 91 345 9 33 21 76 25 95 4 19 16 62 25 95 17
60 29 106 45 180 7 35 23 98 59 245 5 19 16 60 25 91 9 31 16 64 16 74 0 10 4
32 9 49 6 17 15 58 22 91 6 33 17 85 24 115 8 30 19 82 25 115 11 55 26 126
49 230 5 22 14 65 20 95 5 30 17 89 25 130 8 41 20 104 26 140 11 67 19 112
44 240 17 86 30 164 46 270 7 41 16 98 21 125 6 28 15 82 20 120 6 39 14 95
19 125 32 205 44 297 69 507 5 46 12 87 15 92 3 5 11 58 17 117 32 327 48 475
54 505 3 14 10 84 16 155 10 132 16 201 44 549 42 520 60 1065 60 1820 0 763
-18 1312 -60 1820 -9 110 -21 252 -25 315 -20 251 -29 349 -39 435 -18 140
-29 241 -41 355 -6 58 -15 137 -21 175 -10 66 -17 120 -39 295 -9 74 -32 234
-52 360 -5 36 -13 90 -18 120 -5 30 -16 98 -25 150 -9 52 -20 124 -25 160 -5
36 -16 101 -25 145 -36 184 -35 179 -65 354 -6 36 -13 68 -15 72 -3 4 -10 38
-16 75 -18 112 -53 286 -79 394 -4 19 -13 58 -19 85 -9 46 -28 131 -51 230 -5
22 -19 78 -31 125 -11 47 -25 103 -29 125 -5 22 -16 69 -25 105 -9 36 -20 83
-25 105 -12 55 -26 109 -45 180 -9 33 -20 76 -25 95 -5 19 -20 80 -35 135 -31
117 -40 154 -54 216 -5 25 -14 56 -19 70 -6 13 -15 44 -22 69 -21 75 -32 113
-45 155 -7 22 -18 60 -25 85 -7 25 -18 63 -25 85 -7 22 -19 60 -25 85 -7 25
-18 63 -25 85 -7 22 -23 74 -35 115 -30 97 -104 331 -141 440 -64 193 -120
356 -129 375 -4 11 -11 29 -13 40 -6 23 -93 269 -132 370 -14 39 -30 81 -35
95 -18 55 -71 196 -80 215 -5 11 -16 41 -24 67 -9 26 -20 56 -25 65 -5 10 -19
45 -32 78 -12 33 -33 84 -46 113 -12 29 -23 55 -23 59 0 6 -91 235 -115 288
-7 17 -25 59 -40 95 -15 36 -38 90 -52 120 -14 30 -33 76 -43 101 -10 26 -28
68 -40 95 -12 27 -26 58 -30 69 -5 11 -25 55 -44 98 -20 42 -36 79 -36 81 0 2
-22 51 -49 108 -27 58 -62 133 -78 169 -17 35 -47 102 -69 149 -43 95 -450
907 -508 1015 -21 39 -58 107 -82 152 -24 44 -52 97 -63 117 -11 19 -37 66
-57 103 -61 112 -90 165 -129 233 -21 36 -49 85 -63 110 -14 25 -45 78 -69
118 -24 41 -43 75 -43 78 0 2 -16 28 -35 58 -19 30 -35 58 -35 61 0 3 -16 31
-35 61 -19 30 -35 56 -35 58 0 3 -35 61 -77 130 -43 69 -118 191 -168 271
-199 324 -429 672 -693 1050 -211 300 -340 477 -650 889 -46 61 -93 124 -105
141 -22 29 -245 310 -296 371 -14 18 -55 69 -91 114 -36 46 -85 106 -110 134
-25 28 -63 72 -83 98 -21 26 -43 53 -50 60 -7 7 -35 40 -62 73 -73 88 -163
193 -215 250 -25 28 -70 79 -100 114 -30 36 -62 72 -70 81 -8 9 -49 54 -90
100 -41 47 -77 87 -80 90 -5 5 -165 179 -285 309 -246 268 -760 782 -1126
1126 -112 106 -306 285 -333 308 -23 20 -161 144 -180 162 -21 20 -251 221
-280 246 -17 13 -48 40 -70 59 -60 52 -227 192 -257 215 -14 11 -50 41 -80 68
-30 26 -117 97 -194 158 -77 61 -151 121 -165 133 -77 64 -189 152 -295 231
-66 49 -122 91 -125 94 -29 33 -809 594 -1040 747 -41 28 -151 102 -245 165
-93 63 -174 116 -179 118 -6 2 -80 50 -165 106 -86 56 -187 121 -226 144 -38
24 -106 65 -150 92 -44 27 -114 70 -155 95 -41 25 -115 70 -164 100 -49 30
-91 54 -93 54 -2 0 -29 16 -59 35 -30 19 -57 35 -59 35 -3 0 -34 17 -68 38
-92 57 -293 174 -367 215 -36 19 -85 46 -110 59 -25 14 -81 44 -125 68 -44 24
-102 55 -130 70 -99 54 -346 181 -561 288 -322 161 -525 259 -744 359 -30 14
-97 45 -149 69 -51 24 -95 44 -97 44 -2 0 -34 14 -71 31 -38 17 -89 39 -114
49 -45 18 -83 35 -197 86 -29 13 -55 24 -57 24 -2 0 -33 13 -67 29 -35 16
-110 47 -168 70 -108 44 -134 54 -172 70 -13 6 -81 33 -153 62 -71 28 -154 62
-183 75 -29 13 -57 24 -62 24 -6 0 -18 4 -28 9 -9 6 -51 22 -92 36 -41 15 -84
30 -95 35 -11 5 -54 20 -95 35 -41 15 -111 41 -155 57 -44 17 -91 34 -105 39
-14 4 -90 30 -170 58 -203 72 -503 172 -645 216 -66 20 -160 50 -210 67 -88
29 -112 36 -185 57 -19 5 -111 33 -205 61 -162 49 -193 58 -267 79 -18 5 -60
17 -93 26 -33 9 -76 21 -95 25 -19 5 -51 13 -70 18 -102 28 -332 88 -455 118
-77 19 -156 39 -175 43 -19 5 -87 21 -150 36 -63 14 -131 30 -150 35 -19 4
-57 13 -85 18 -27 6 -81 17 -120 25 -38 9 -97 21 -130 27 -33 6 -89 18 -125
27 -78 17 -125 27 -205 43 -33 6 -89 18 -125 25 -36 8 -96 19 -135 25 -38 7
-88 16 -110 20 -22 5 -78 16 -125 25 -47 9 -107 20 -135 25 -81 16 -295 51
-365 60 -36 5 -94 14 -130 19 -123 20 -275 41 -360 52 -47 6 -116 14 -155 19
-38 5 -128 16 -200 25 -71 9 -152 18 -180 21 -27 2 -86 9 -130 14 -119 14
-336 38 -450 49 -55 6 -165 17 -245 25 -198 21 -453 36 -1100 67 -292 14
-1404 20 -1645 8z m1435 -8569 c173 -5 376 -13 450 -19 74 -6 243 -17 375 -26
221 -14 347 -26 590 -56 50 -6 135 -15 190 -20 55 -4 116 -11 135 -15 19 -3
82 -12 140 -20 58 -7 148 -20 200 -28 52 -9 136 -22 185 -30 94 -15 181 -30
275 -47 30 -6 86 -14 123 -19 38 -6 85 -14 105 -19 20 -5 73 -17 117 -26 44
-10 107 -24 140 -31 33 -8 83 -19 110 -24 52 -10 147 -29 250 -51 33 -7 101
-23 150 -36 50 -13 106 -28 125 -33 19 -4 71 -18 115 -30 44 -11 103 -27 130
-35 28 -7 86 -23 130 -35 44 -12 121 -32 170 -45 50 -13 142 -40 205 -60 63
-20 133 -41 155 -46 22 -6 72 -20 110 -33 76 -25 181 -58 260 -81 100 -30 205
-66 365 -125 47 -18 103 -38 125 -45 22 -7 65 -23 95 -34 30 -12 82 -31 115
-42 81 -28 277 -105 345 -136 30 -14 118 -52 195 -85 77 -32 164 -70 193 -84
29 -13 55 -24 58 -24 3 0 20 -6 37 -14 18 -8 57 -26 87 -39 30 -14 114 -53
185 -87 72 -34 175 -84 230 -110 232 -110 478 -235 590 -300 46 -27 119 -67
255 -140 269 -144 831 -487 1037 -633 54 -38 107 -74 278 -192 97 -67 170
-119 285 -206 30 -22 162 -121 292 -219 131 -98 255 -193 276 -211 21 -19 121
-101 222 -184 282 -231 222 -178 640 -564 314 -291 774 -757 950 -964 14 -17
50 -57 81 -91 31 -34 78 -86 104 -116 27 -30 54 -60 59 -66 38 -39 126 -144
156 -184 19 -26 54 -69 76 -96 23 -27 97 -119 165 -204 68 -85 127 -159 131
-165 20 -24 172 -232 192 -261 11 -18 85 -119 162 -226 78 -106 158 -220 179
-253 21 -33 61 -96 90 -140 29 -44 78 -120 110 -170 32 -49 81 -126 111 -170
29 -44 91 -146 138 -228 47 -81 97 -164 111 -185 14 -20 25 -40 25 -45 0 -4
12 -26 27 -50 15 -23 33 -51 39 -62 6 -11 36 -63 67 -116 57 -98 425 -822 464
-914 24 -56 114 -258 143 -320 15 -34 54 -120 90 -200 26 -59 51 -119 80 -195
36 -96 94 -239 116 -287 8 -17 14 -37 14 -45 0 -8 4 -18 8 -24 4 -5 18 -36 31
-69 13 -33 29 -73 36 -90 15 -35 289 -865 310 -940 38 -136 57 -205 70 -253
30 -109 46 -169 61 -222 51 -180 64 -234 75 -303 5 -33 12 -64 15 -69 4 -6 13
-40 20 -74 8 -35 20 -92 28 -126 49 -216 58 -258 66 -298 5 -25 13 -58 19 -73
6 -16 11 -42 11 -58 0 -16 6 -58 14 -92 8 -34 21 -105 30 -157 9 -52 21 -122
27 -155 19 -107 38 -218 53 -310 8 -49 17 -101 20 -115 3 -14 11 -70 16 -125
17 -168 44 -392 71 -585 6 -41 14 -140 19 -220 4 -80 13 -197 19 -260 28 -291
34 -460 39 -1095 4 -655 2 -779 -29 -1305 -16 -295 -29 -434 -70 -795 -6 -55
-15 -140 -20 -190 -4 -49 -13 -119 -19 -155 -5 -36 -14 -99 -20 -140 -6 -41
-17 -120 -25 -175 -8 -55 -21 -140 -29 -190 -8 -49 -19 -128 -25 -175 -13 -94
-36 -221 -53 -290 -6 -25 -14 -67 -18 -95 -4 -27 -12 -68 -18 -90 -6 -22 -18
-78 -27 -125 -9 -47 -21 -103 -26 -125 -6 -22 -17 -66 -25 -97 -8 -32 -20 -84
-28 -115 -39 -163 -65 -269 -81 -328 -8 -27 -21 -79 -31 -115 -9 -36 -22 -85
-29 -110 -8 -25 -16 -61 -20 -80 -3 -19 -10 -46 -15 -60 -5 -14 -18 -59 -30
-100 -12 -41 -28 -93 -35 -115 -7 -22 -21 -67 -30 -100 -35 -124 -190 -611
-217 -680 -26 -66 -40 -102 -83 -215 -19 -52 -40 -103 -45 -112 -6 -10 -10
-23 -10 -29 0 -9 -49 -132 -86 -214 -7 -16 -36 -88 -64 -160 -56 -142 -87
-215 -120 -286 -5 -8 -33 -75 -64 -147 -111 -260 -564 -1138 -657 -1274 -11
-15 -19 -30 -19 -32 0 -8 -284 -487 -335 -566 -23 -36 -69 -108 -103 -160 -74
-117 -148 -225 -227 -335 -33 -46 -89 -124 -125 -175 -199 -279 -519 -699
-630 -825 -19 -22 -53 -62 -75 -89 -22 -27 -72 -86 -111 -131 -39 -45 -94
-111 -124 -146 -29 -35 -98 -113 -154 -173 -55 -60 -105 -114 -111 -120 -5 -6
-57 -63 -115 -126 -136 -150 -440 -450 -615 -609 -38 -34 -101 -93 -140 -130
-38 -37 -108 -101 -155 -141 -47 -41 -87 -77 -90 -80 -13 -16 -231 -209 -270
-240 -25 -19 -83 -67 -130 -106 -47 -39 -130 -106 -185 -148 -55 -43 -109 -85
-120 -95 -23 -19 -320 -247 -445 -342 -47 -35 -105 -78 -130 -95 -25 -17 -79
-54 -120 -83 -89 -61 -351 -240 -385 -261 -13 -8 -71 -46 -128 -85 -58 -38
-142 -92 -186 -120 -45 -27 -114 -70 -154 -95 -100 -62 -102 -63 -192 -117
-44 -26 -87 -51 -95 -54 -9 -4 -58 -32 -110 -64 -52 -31 -103 -61 -115 -66
-11 -5 -34 -18 -52 -28 -17 -11 -67 -39 -110 -62 -43 -24 -96 -53 -118 -65
-22 -13 -51 -29 -65 -37 -92 -51 -734 -367 -746 -367 -2 0 -45 -21 -96 -46
-93 -45 -641 -284 -708 -308 -19 -7 -80 -31 -135 -54 -55 -22 -158 -61 -230
-87 -71 -26 -152 -55 -180 -65 -27 -11 -90 -33 -140 -51 -49 -17 -99 -35 -110
-39 -23 -9 -115 -41 -165 -59 -77 -27 -332 -110 -445 -146 -66 -21 -138 -43
-160 -50 -22 -7 -69 -21 -105 -30 -36 -10 -85 -24 -110 -31 -80 -25 -224 -66
-282 -80 -54 -13 -104 -25 -218 -54 -25 -6 -67 -17 -95 -25 -27 -8 -86 -21
-130 -30 -44 -9 -105 -23 -135 -30 -125 -31 -294 -68 -385 -86 -33 -6 -89 -17
-125 -24 -36 -7 -92 -18 -125 -24 -33 -7 -90 -18 -126 -26 -37 -8 -77 -15 -90
-15 -13 0 -55 -6 -94 -14 -85 -18 -237 -43 -505 -83 -191 -28 -425 -56 -690
-82 -58 -6 -143 -16 -190 -22 -47 -6 -150 -15 -230 -20 -80 -5 -190 -13 -245
-18 -173 -17 -785 -35 -1160 -35 -408 0 -982 18 -1221 40 -89 8 -186 14 -215
14 -30 0 -106 6 -169 14 -63 9 -167 20 -230 26 -212 20 -563 60 -685 79 -38 6
-114 18 -167 26 -54 8 -144 22 -200 31 -57 8 -132 22 -168 30 -36 8 -75 14
-88 14 -13 0 -51 6 -85 14 -34 8 -89 19 -122 25 -33 7 -96 19 -140 27 -44 8
-111 21 -150 29 -165 31 -238 48 -360 80 -76 20 -240 59 -315 75 -25 6 -56 14
-70 19 -14 5 -70 19 -125 32 -55 12 -143 33 -195 47 -52 13 -115 28 -140 32
-25 5 -58 14 -75 20 -16 7 -84 14 -150 17 -171 7 -307 -15 -490 -82 -55 -20
-127 -45 -160 -56 -33 -12 -80 -30 -105 -41 -42 -20 -109 -47 -340 -143 -58
-23 -141 -59 -185 -80 -44 -20 -105 -47 -135 -60 -30 -13 -95 -42 -143 -64
-49 -23 -90 -41 -93 -41 -3 0 -35 -14 -72 -31 -144 -67 -192 -89 -332 -149
-147 -64 -234 -102 -326 -146 -28 -13 -54 -24 -57 -24 -6 0 -49 -20 -202 -90
-40 -19 -119 -54 -353 -156 -68 -30 -149 -66 -180 -80 -32 -15 -66 -30 -77
-35 -11 -4 -54 -23 -95 -42 -41 -19 -97 -44 -125 -56 -57 -25 -67 -30 -150
-67 -399 -178 -473 -200 -720 -210 -283 -12 -467 29 -720 160 -232 121 -418
320 -547 586 -45 93 -73 177 -99 300 -25 115 -24 88 -70 1730 -22 806 -29 979
-39 1090 -5 63 -10 158 -10 210 0 52 -6 124 -14 160 -8 36 -17 90 -21 120 -8
60 -35 185 -58 267 -25 87 -102 234 -164 313 -57 71 -355 365 -691 680 -84 79
-156 149 -160 156 -4 7 -109 118 -233 246 -238 245 -311 323 -344 368 -11 15
-27 34 -35 42 -8 8 -28 30 -44 49 -16 19 -52 59 -80 89 -28 30 -69 77 -91 104
-22 27 -78 93 -124 145 -46 53 -94 112 -107 131 -13 19 -43 58 -67 86 -45 55
-55 67 -269 346 -147 191 -155 202 -272 373 -70 101 -103 149 -216 310 -81
115 -182 271 -224 345 -6 10 -33 55 -61 100 -27 45 -55 89 -60 98 -6 9 -18 28
-26 42 -44 68 -169 271 -169 274 0 3 -28 55 -63 118 -35 62 -94 169 -132 238
-38 69 -84 152 -102 185 -19 33 -72 139 -119 235 -269 552 -305 631 -444 970
-52 129 -125 304 -165 400 -13 30 -35 91 -50 135 -15 44 -47 136 -72 205 -24
69 -57 162 -73 208 -16 45 -43 119 -59 165 -16 45 -46 136 -66 202 -20 66 -43
140 -50 165 -15 46 -76 247 -102 335 -8 28 -21 68 -28 90 -22 67 -66 245 -125
500 -33 145 -52 226 -64 270 -19 72 -42 177 -61 280 -21 122 -43 236 -60 320
-8 39 -23 122 -35 185 -11 63 -25 138 -30 165 -6 28 -14 84 -19 125 -15 122
-30 238 -46 355 -8 61 -21 162 -29 225 -26 196 -56 567 -81 1010 -43 766 -37
1688 16 2240 6 63 15 180 19 260 5 80 13 179 19 220 6 41 18 138 26 215 9 77
22 190 30 250 8 61 19 146 25 190 9 77 26 179 56 353 8 45 20 119 28 165 27
155 38 212 52 274 8 34 14 74 14 88 0 14 6 51 14 83 20 81 36 147 53 222 8 36
21 92 28 125 17 74 39 172 55 245 6 30 18 77 26 104 8 26 14 56 14 64 0 9 6
34 14 57 7 22 21 67 30 100 10 33 24 83 31 110 8 28 19 66 24 85 45 169 140
476 241 780 120 359 169 495 240 665 10 22 38 94 64 160 60 152 75 190 98 242
10 23 18 44 18 47 0 3 18 44 41 92 22 49 52 113 66 144 14 30 45 96 68 145 23
50 52 115 65 145 25 56 247 499 292 580 14 25 62 117 108 205 46 88 97 183
115 210 17 28 65 109 105 180 191 338 220 384 517 830 183 274 220 328 336
485 40 54 110 151 157 215 47 64 135 177 195 252 61 74 133 163 160 198 83
104 219 267 270 325 18 19 74 82 126 140 52 58 99 110 104 116 6 6 50 58 100
115 123 142 703 722 905 904 91 82 192 175 225 206 85 80 354 306 518 433 28
22 58 47 66 55 9 9 45 38 81 66 36 27 67 52 70 55 3 3 27 21 53 40 27 19 60
44 75 56 92 71 445 335 488 364 177 121 269 185 429 295 151 104 234 157 374
240 18 11 163 98 196 118 11 7 39 24 63 40 24 15 76 45 115 68 40 22 86 49
102 59 17 10 66 38 110 61 44 23 85 45 90 49 6 4 42 24 80 45 39 21 93 50 120
65 152 83 196 107 250 137 33 19 76 41 95 49 19 9 76 36 125 59 188 90 429
204 545 258 143 66 777 334 875 369 61 22 182 66 270 98 88 32 174 62 190 68
17 6 55 20 85 32 62 24 121 43 295 95 66 20 138 43 160 50 22 7 67 21 100 30
33 9 78 23 100 31 70 24 237 72 340 99 55 14 151 39 213 55 61 16 116 31 121
35 5 3 29 9 53 14 24 5 79 18 123 31 89 24 192 49 305 74 41 8 98 21 125 26
28 6 73 15 100 20 28 5 77 16 110 24 33 7 96 21 140 31 44 10 107 24 141 31
33 8 71 14 83 14 13 0 62 7 110 16 204 37 240 44 306 54 39 6 113 18 165 26
134 21 294 42 445 59 72 7 171 18 220 24 249 30 370 42 585 56 129 8 296 20
370 25 74 6 299 15 500 20 201 5 397 11 435 14 75 4 364 -1 865 -14z"/>
<path d="M34173 30311 c-57 -10 -187 -70 -275 -128 -31 -21 -180 -131 -330
-245 -394 -300 -735 -559 -953 -724 -104 -79 -316 -239 -471 -356 -154 -117
-354 -269 -445 -337 -90 -69 -186 -142 -214 -163 -27 -21 -76 -57 -107 -80
-32 -24 -86 -65 -121 -93 -35 -27 -85 -66 -112 -85 -89 -65 -142 -105 -239
-180 -54 -41 -107 -82 -119 -90 -12 -8 -57 -42 -100 -75 -43 -33 -92 -70 -109
-83 -34 -24 -371 -279 -693 -523 -110 -84 -301 -229 -425 -322 -275 -209 -555
-421 -715 -542 -241 -183 -380 -245 -596 -264 -166 -14 -358 11 -479 65 -61
27 -154 76 -185 99 -49 35 -632 470 -1027 765 -343 257 -598 448 -1358 1015
-168 126 -316 237 -330 247 -59 46 -660 494 -680 508 -12 8 -136 101 -275 205
-139 105 -300 222 -357 261 -94 66 -369 214 -396 214 -10 0 -37 10 -117 45
-16 8 -64 23 -105 35 -41 12 -86 25 -100 30 -26 9 -114 28 -265 57 -110 22
-566 26 -680 6 -38 -7 -99 -17 -135 -22 -166 -26 -224 -40 -395 -101 -359
-126 -788 -415 -1017 -685 -124 -146 -198 -248 -315 -433 -43 -67 -90 -142
-105 -165 -15 -23 -41 -64 -58 -92 -36 -58 -228 -362 -284 -450 -21 -33 -54
-85 -73 -115 -19 -30 -70 -111 -113 -180 -102 -160 -109 -171 -162 -255 -25
-38 -62 -98 -84 -133 -21 -34 -62 -100 -91 -145 -28 -45 -71 -113 -95 -151
-24 -38 -50 -79 -58 -92 -8 -12 -34 -53 -57 -91 -24 -37 -67 -106 -97 -153
-31 -47 -67 -105 -82 -130 -15 -25 -51 -81 -79 -125 -45 -69 -241 -379 -285
-449 -8 -14 -34 -55 -57 -93 -24 -37 -68 -106 -98 -153 -30 -47 -60 -94 -65
-105 -6 -11 -28 -47 -50 -80 -22 -33 -72 -112 -111 -175 -39 -63 -88 -142
-110 -175 -21 -33 -57 -89 -79 -125 -23 -36 -92 -146 -155 -245 -128 -201
-174 -275 -243 -386 -26 -41 -72 -113 -102 -160 -30 -46 -59 -91 -65 -101 -24
-39 -78 -126 -105 -168 -16 -25 -44 -69 -62 -99 -18 -29 -40 -64 -48 -77 -169
-265 -271 -426 -344 -544 -26 -41 -71 -113 -101 -160 -31 -47 -80 -125 -111
-175 -30 -49 -80 -128 -110 -175 -30 -47 -72 -114 -95 -150 -22 -36 -58 -92
-79 -125 -22 -33 -49 -76 -60 -95 -11 -19 -38 -62 -60 -95 -53 -82 -209 -328
-300 -475 -23 -36 -92 -146 -155 -245 -63 -99 -128 -202 -145 -230 -17 -27
-53 -84 -80 -125 -178 -269 -232 -521 -159 -742 42 -129 88 -207 177 -306 159
-174 353 -262 579 -262 104 0 166 14 283 63 98 41 153 75 275 167 55 42 165
126 245 186 356 270 492 373 585 444 55 42 177 134 270 205 94 71 271 206 395
300 124 94 311 236 415 315 105 79 350 266 545 414 195 148 418 318 495 376
77 58 290 221 473 361 183 140 357 272 387 294 56 42 110 82 185 140 25 19 65
49 90 67 25 19 101 76 169 128 69 52 211 160 316 240 272 207 291 221 342 263
25 21 58 46 72 55 14 8 37 26 51 38 30 26 128 94 135 94 3 0 24 12 46 26 53
33 178 83 254 101 212 51 422 37 635 -43 106 -39 170 -82 532 -356 32 -23 66
-49 75 -56 10 -7 108 -80 218 -163 110 -83 267 -201 350 -263 157 -117 1661
-1243 1730 -1295 22 -17 144 -108 270 -203 127 -95 305 -229 397 -298 144
-108 464 -345 594 -440 23 -17 45 -30 49 -30 5 0 16 -6 24 -14 22 -20 231
-131 316 -167 92 -40 218 -87 280 -104 28 -8 91 -26 140 -40 50 -13 102 -25
117 -25 14 0 55 -7 90 -17 97 -25 648 -25 768 0 47 10 119 25 160 33 206 42
520 170 754 306 184 108 452 342 597 523 117 145 241 323 333 475 15 25 56 90
91 145 35 55 85 134 110 175 25 41 84 134 130 205 47 72 89 139 94 150 5 11
34 57 65 103 31 46 56 85 56 88 0 3 8 17 19 32 10 15 34 52 53 82 19 30 57 90
84 132 27 43 72 114 99 158 161 257 249 395 373 590 54 85 75 119 122 195 24
39 71 113 105 165 34 52 102 160 152 240 50 80 105 168 123 195 94 147 160
253 205 326 28 44 78 124 113 176 34 53 62 98 62 100 0 2 23 37 50 79 28 41
50 77 50 80 0 2 30 51 68 108 37 58 92 144 122 192 30 48 84 134 120 190 36
57 92 146 125 199 33 53 85 135 116 183 66 103 176 277 219 347 17 28 44 70
60 95 16 25 44 69 62 99 18 29 40 64 48 76 8 13 34 54 58 92 24 37 61 95 82
128 21 33 65 102 97 154 32 51 65 104 73 116 8 13 30 47 48 76 18 30 71 113
117 184 47 72 89 139 94 150 5 11 33 57 63 102 29 45 85 132 123 193 39 61 91
143 116 183 26 39 102 160 169 267 67 107 149 238 183 290 67 107 119 188 152
240 12 19 39 62 60 95 20 33 46 72 56 87 11 15 19 29 19 32 0 2 22 38 50 80
44 67 108 191 154 299 9 21 21 79 28 130 19 158 -26 351 -115 490 -59 90 -201
224 -293 274 -27 14 -60 32 -74 39 -14 8 -33 14 -43 14 -10 0 -32 7 -48 16
-36 18 -281 28 -366 15z"/>
</g>
</svg>
